<?xml version="1.0" encoding="utf-8"?>
<svg width="445" height="531" viewBox="0 0 445 531" fill="none" xmlns="http://www.w3.org/2000/svg">
<g clip-path="url(#clip0)">
<g filter="url(#filter0_d)">
<path d="M255.071 390.62C262.838 382.311 272.933 368.987 276.682 350.846C281.609 327.058 271.296 315.889 269.708 276.273C268.707 251.224 268.258 233.716 280.273 223.562C289.694 215.591 305.64 213.064 315.855 219.197C324.334 224.293 329.819 235.963 331.828 244.42C333.471 251.317 332.868 256.424 337.144 259.845C341.523 263.32 345.826 260.898 349.865 263.418C358.077 268.536 354.792 287.512 354.245 290.578C348.371 324.695 318.855 349.411 305.854 360.039C290.46 372.572 273.362 382.868 255.071 390.62Z" fill="url(#paint0_linear)"/>
</g>
<g style="mix-blend-mode:soft-light" opacity="0.5">
<g style="mix-blend-mode:soft-light" opacity="0.5">
<path d="M246.093 397.643L245.639 396.65C290.269 376.244 303.057 352.456 305.925 336.126C307.836 325.214 306.155 314.187 303.823 298.883C301.967 286.661 299.542 278.15 297.402 270.675C294.599 260.854 292.388 253.101 292.793 241.594C293.203 229.924 296.258 218.133 301.88 206.583L302.865 207.057C297.315 218.482 294.293 230.115 293.882 241.632C293.488 252.965 295.678 260.647 298.453 270.375C300.604 277.899 303.035 286.432 304.907 298.714C307.162 313.543 308.947 325.252 307.004 336.317C304.518 350.47 296.055 363.733 281.823 375.726C272.221 383.817 260.2 391.193 246.093 397.643Z" fill="white"/>
</g>
<g style="mix-blend-mode:soft-light" opacity="0.5">
<path d="M303.165 290.464L302.579 290.257C302.497 290.224 294.001 287.136 285.199 279.235C277.075 271.952 266.998 258.955 265.126 238.441L266.22 238.337C268.06 258.524 277.957 271.27 285.927 278.428C290.779 282.83 296.328 286.403 302.349 289.002C307.621 266.376 318.651 251.661 326.983 243.275C336.135 234.092 344.182 230.289 344.259 230.257L344.724 231.244C344.648 231.277 336.743 235.02 327.722 244.077C319.401 252.435 308.398 267.161 303.247 289.864L303.165 290.464Z" fill="white"/>
</g>
<g style="mix-blend-mode:soft-light" opacity="0.5">
<path d="M307.047 323.626L306.801 323.309C300.701 315.795 293.969 308.813 286.678 302.44C275.637 293.001 251.097 291.102 250.85 291.081L250.932 289.989C255.609 290.406 260.255 291.116 264.842 292.117C275.046 294.349 282.633 297.541 287.39 301.605C294.633 307.934 301.329 314.859 307.409 322.305C332.316 312.665 355.477 251.497 355.712 250.875L356.736 251.257C352.409 262.376 347.421 273.227 341.797 283.753C329.721 306.172 318.154 319.534 307.42 323.468L307.047 323.626Z" fill="white"/>
</g>
<g style="mix-blend-mode:soft-light" opacity="0.5">
<path d="M285.123 372.556L285.605 371.579C291.336 359.903 289.596 348.162 280.432 336.66C275.985 331.219 270.69 326.525 264.749 322.758L265.296 321.82C271.337 325.656 276.724 330.43 281.253 335.962C290.329 347.321 292.316 359.423 287.039 371.044C294.292 369.457 336.793 358.97 363.649 326.921L393.412 291.402L394.249 292.101L364.487 327.62C334.926 362.882 286.661 372.25 286.18 372.359L285.123 372.556Z" fill="white"/>
</g>
</g>
<g filter="url(#filter1_d)">
<path d="M252.854 386.85C267.601 392.852 287.248 398.433 308.58 397.517C314.022 397.288 347.654 395.842 349.499 381.574C350.145 376.549 346.302 374.181 347.052 367.443C347.939 359.466 353.906 357.688 360.644 349.984C364.662 345.39 376.426 331.979 370.498 319.555C366.972 312.141 357.289 305.43 348.415 304.071C335.392 302.074 326.645 311.988 312.138 329.016C299.274 344.113 299.055 348.991 289.602 359.701C282.611 367.667 271.291 377.946 252.854 386.85Z" fill="url(#paint1_linear)"/>
</g>
<g style="mix-blend-mode:soft-light" opacity="0.5">
<g style="mix-blend-mode:soft-light" opacity="0.5">
<path d="M247.236 387.058C242.924 387.058 238.617 386.744 234.35 386.119C217.884 383.735 202.146 377.002 187.569 366.139L188.226 365.266C202.655 376.014 218.229 382.671 234.509 385.039C256.203 388.198 278.11 383.255 299.651 370.34C322.095 356.886 338.473 338.15 348.272 324.81C355.043 315.594 359.116 304.011 360.381 290.393L361.475 290.491C360.194 304.311 356.051 316.074 349.164 325.453C339.311 338.881 322.806 357.726 300.22 371.284C282.703 381.771 264.962 387.058 247.236 387.058Z" fill="white"/>
</g>
<g style="mix-blend-mode:soft-light" opacity="0.5">
<path d="M326.304 350.846L326.156 350.377C326.074 350.104 317.945 322.955 333.081 302.658L333.963 303.307C320.228 321.711 326.074 345.919 327.071 349.586C366.325 341.789 375.308 318.59 377.131 311.639C377.161 311.513 377.197 311.389 377.241 311.268L378.259 311.666C378.259 311.71 378.221 311.792 378.188 311.917C376.321 319.048 367.081 342.929 326.786 350.753L326.304 350.846Z" fill="white"/>
</g>
<g style="mix-blend-mode:soft-light" opacity="0.5">
<path d="M335.15 381.64C326.32 381.64 314.348 379.37 300.017 371.055L299.76 370.908V370.619C299.76 370.4 298.577 348.882 310.357 324.99L322.214 300.945L323.194 301.43L311.326 325.47C300.417 347.594 300.729 367.634 300.822 370.258C310.757 375.993 325.805 382.262 341.554 380.118C351.046 378.824 356.378 375.005 356.416 374.962L357.068 375.84C356.843 376.004 351.517 379.839 341.773 381.192C339.578 381.492 337.365 381.642 335.15 381.64Z" fill="white"/>
</g>
</g>
<path d="M403.954 54.2881C403.983 55.1651 403.965 56.0429 403.9 56.918C403.856 57.2944 403.85 57.66 403.796 58.0092C403.675 58.7403 403.549 59.4659 403.369 60.1916C403.281 60.5517 403.193 60.9063 403.089 61.2555C403.018 61.4847 402.947 61.7193 402.871 61.9539C401.053 67.4099 397.353 72.0858 392.42 75.594C392.311 75.6704 392.212 75.7468 392.103 75.8177C390.377 77.0154 388.545 78.0527 386.629 78.9167L386.268 79.0749C385.408 79.4514 384.521 79.8006 383.618 80.1171C383.235 80.248 382.841 80.3789 382.452 80.499L381.658 80.739C381.259 80.8536 380.859 80.9573 380.454 81.061C380.186 81.1264 379.907 81.1973 379.644 81.2574C376.124 82.0602 372.511 82.3851 368.904 82.2231L368.077 82.1794H367.842H367.776L367.256 82.1413H366.999L366.451 82.0867L366.211 82.0594L365.63 81.9885H365.422L364.804 81.9012L364.645 81.8739L363.966 81.7702C363.966 81.7702 363.906 81.4483 363.879 81.4429C363.627 81.3992 363.369 80.9955 363.123 80.9955C360.999 80.9955 358.957 80.3353 357.02 79.6205V79.7679C356.412 79.5442 355.815 79.3805 355.229 79.1295C354.644 78.8785 354.195 78.7039 353.691 78.4584C353.445 78.6548 353.144 78.8785 352.843 79.0968C348.929 77.4464 345.362 75.0774 342.327 72.113C342.666 71.6547 342.989 71.1801 343.29 70.6781C339.114 65.9313 336.661 60.1043 336.661 53.8899C336.661 38.984 350.757 26.4787 368.915 25.9331C369.506 25.9331 369.938 25.9331 370.524 25.9331C388.315 26.1623 403.254 37.9364 403.801 53.1097V53.7971C403.774 53.9008 403.954 54.0917 403.954 54.2881Z" fill="#7D4AA6"/>
<path d="M401.706 54.1899C401.706 70.1052 386.258 82.3922 367.766 82.1576C367.339 82.1576 366.907 82.1576 366.474 82.1249C366.042 82.0922 365.691 82.0867 365.303 82.054C364.914 82.0212 364.509 81.9939 364.115 81.9503C364.034 81.9463 363.954 81.9372 363.874 81.923C363.622 81.8957 363.37 81.8739 363.119 81.8357C362.867 81.7975 362.62 81.7757 362.374 81.7321C362.018 81.6829 361.662 81.6284 361.279 81.5629C361.066 81.5247 360.858 81.492 360.65 81.4483C358.574 81.0513 356.534 80.4838 354.552 79.7515C353.955 79.5333 353.369 79.2987 352.794 79.0531C348.88 77.397 345.313 75.0224 342.279 72.053C337.221 67.0608 334.193 60.6281 334.193 53.7207C334.193 38.8203 348.289 26.3096 366.447 25.764C367.842 25.7208 369.238 25.7518 370.629 25.8567C385.409 26.9152 397.698 35.9395 400.879 48.0192C400.961 48.3192 401.038 48.6248 401.103 48.9358C401.103 49.034 401.147 49.1322 401.164 49.2304C401.218 49.4777 401.268 49.7233 401.311 49.967C401.377 50.3325 401.437 50.6926 401.481 51.0582C401.481 51.1946 401.519 51.3364 401.53 51.4728C401.541 51.6092 401.574 51.822 401.585 52.0184C401.596 52.2149 401.623 52.4004 401.629 52.564V52.7441C401.629 52.9678 401.629 53.186 401.629 53.4097C401.629 53.6334 401.706 53.9335 401.706 54.1899Z" fill="url(#paint2_linear)"/>
<path d="M401.706 54.1899C401.706 70.1052 386.258 82.3922 367.766 82.1576C367.339 82.1576 366.907 82.1576 366.474 82.1249C366.042 82.0922 365.691 82.0867 365.303 82.054C364.914 82.0212 364.509 81.9939 364.115 81.9503C364.034 81.9463 363.954 81.9372 363.874 81.923C363.622 81.8957 363.37 81.8739 363.119 81.8357C362.867 81.7975 362.62 81.7757 362.374 81.7321C362.018 81.6829 361.662 81.6284 361.279 81.5629C361.066 81.5247 360.858 81.492 360.65 81.4483C358.574 81.0513 356.534 80.4838 354.552 79.7515C353.955 79.5333 353.369 79.2987 352.794 79.0531C348.88 77.397 345.313 75.0224 342.279 72.053C337.221 67.0608 334.193 60.6281 334.193 53.7207C334.193 38.8203 348.289 26.3096 366.447 25.764C367.842 25.7208 369.238 25.7518 370.629 25.8567C385.409 26.9152 397.698 35.9395 400.879 48.0192C400.961 48.3192 401.038 48.6248 401.103 48.9358C401.103 49.034 401.147 49.1322 401.164 49.2304C401.218 49.4777 401.268 49.7233 401.311 49.967C401.377 50.3325 401.437 50.6926 401.481 51.0582C401.481 51.1946 401.519 51.3364 401.53 51.4728C401.541 51.6092 401.574 51.822 401.585 52.0184C401.596 52.2149 401.623 52.4004 401.629 52.564V52.7441C401.629 52.9678 401.629 53.186 401.629 53.4097C401.629 53.6334 401.706 53.9335 401.706 54.1899Z" fill="url(#paint3_linear)"/>
<path d="M407.036 205.442C407.036 205.546 407.036 205.65 407.063 205.753V206.01C407.063 206.135 407.063 206.261 407.063 206.386C407.063 206.512 407.063 206.523 407.063 206.594C407.063 206.79 407.063 206.986 407.063 207.183C407.065 208.037 407.008 208.89 406.893 209.736C406.692 211.204 406.325 212.645 405.799 214.03C405.727 214.232 405.651 214.428 405.569 214.625C405.251 215.416 404.885 216.186 404.474 216.933C403.521 218.657 402.365 220.261 401.031 221.712C400.73 222.04 400.418 222.367 400.1 222.683C399.783 223 399.449 223.316 399.109 223.622C397.741 224.87 396.264 225.994 394.697 226.983C394.495 227.108 394.292 227.234 394.084 227.354C393.668 227.599 393.246 227.839 392.814 228.069C391.282 228.89 389.692 229.599 388.057 230.191C387.583 230.366 387.101 230.529 386.612 230.682C386.123 230.835 385.63 230.982 385.134 231.124C384.636 231.26 384.132 231.391 383.623 231.511C380.752 232.192 377.815 232.557 374.865 232.603H373.31H373.025H372.538H372.248H371.766H371.487L371 232.564H370.737L370.228 232.521L369.993 232.493L369.445 232.433H369.248L368.657 232.352H368.52L367.874 232.057H367.83C366.412 231.827 365.008 231.514 363.626 231.119C352.032 227.807 343.919 219.23 343.919 209.06C343.919 195.834 357.605 184.508 374.881 183.706C391.539 182.947 405.492 192.266 407.003 204.902C407.003 204.984 407.003 205.066 407.003 205.148C407.003 205.23 407.03 205.322 407.036 205.442Z" fill="url(#paint4_linear)"/>
<path d="M341.824 209.06C341.824 222.28 355.235 232.815 372.117 232.575C389.388 232.335 403.681 220.965 403.681 207.183C403.681 193.401 389.388 182.903 372.117 183.722C355.235 184.491 341.824 195.834 341.824 209.06Z" fill="url(#paint5_linear)"/>
<path d="M363.112 195.278V218.673C363.112 220.174 364.387 221.112 365.493 220.425L385.145 208.127C386.371 207.357 386.371 205.186 385.145 204.493L365.493 193.384C364.387 192.773 363.112 193.777 363.112 195.278Z" fill="white"/>
<g style="mix-blend-mode:multiply" opacity="0.3">
<path style="mix-blend-mode:multiply" opacity="0.3" d="M364.65 226.486C368.351 219.224 364.606 212.595 369.615 207.805C374.739 202.894 381.45 207.107 388.736 202.982C391.572 201.378 394.758 198.371 397.101 192.315C401.223 196.336 403.669 201.492 403.669 207.183C403.669 220.965 389.377 232.335 372.106 232.575C368.38 232.64 364.666 232.149 361.086 231.119C362.544 229.8 363.751 228.231 364.65 226.486Z" fill="url(#paint6_linear)"/>
</g>
<path d="M400.085 155.061L399.767 155.034L399.22 154.99L398.902 154.963L398.355 154.903L398.054 154.87L397.435 154.799L397.162 154.767L396.543 154.679L396.308 154.647L395.645 154.543L395.47 154.51L394.726 154.379H394.638C392.709 154.017 390.806 153.533 388.939 152.928C375.659 148.563 366.408 138.469 366.408 126.984C366.408 112.046 382.064 99.8187 401.875 99.6769C421.138 99.535 437.341 110.796 439.099 125.32C439.099 125.397 439.099 125.479 439.126 125.555L439.159 125.915C439.159 126.03 439.159 126.139 439.186 126.253C439.214 126.368 439.186 126.455 439.186 126.559C439.186 126.662 439.186 126.843 439.186 126.984C439.186 127.126 439.186 127.143 439.186 127.224C439.186 127.448 439.186 127.672 439.186 127.896C439.186 135.534 435.207 142.31 428.785 147.215C428.369 147.537 427.948 147.843 427.51 148.143C427.072 148.443 426.634 148.738 426.18 149.021L425.49 149.441C425.03 149.714 424.559 149.987 424.078 150.238C423.596 150.489 423.109 150.745 422.611 150.986C422.112 151.226 421.762 151.384 421.33 151.575C418.829 152.666 416.227 153.512 413.562 154.101C413.015 154.221 412.505 154.33 411.974 154.428C408.641 155.023 405.253 155.257 401.869 155.127L400.977 155.094H400.698L400.085 155.061Z" fill="url(#paint7_linear)"/>
<path d="M364.537 126.963C364.537 141.901 379.913 154.516 399.374 155.149C419.403 155.809 436.05 143.598 436.05 127.868C436.05 112.139 419.387 99.4971 399.374 99.6608C379.919 99.7972 364.537 112.024 364.537 126.963Z" fill="url(#paint8_linear)"/>
<path d="M444.999 390.67L26.9261 387.118V397.626C26.9261 400.48 28.749 402.902 31.2178 403.333L149.458 424.028C150.858 424.273 152.284 424.339 153.701 424.224L440.456 400.649C443.012 400.441 444.999 398.008 444.999 395.078V390.67Z" fill="#689F38"/>
<path d="M293.279 373.827L31.2504 393.049C26.5591 393.392 22.7491 389.737 22.7491 384.864V190.4C22.7491 185.55 26.581 181.61 31.2504 181.61H293.279C297.144 181.61 300.264 185.168 300.264 189.56V365.365C300.264 369.757 297.144 373.543 293.279 373.827Z" fill="#689F38"/>
<path d="M297.456 373.827L35.4274 393.049C30.7361 393.392 26.9261 389.737 26.9261 384.864V190.4C26.9261 185.55 30.758 181.61 35.4274 181.61H297.456C301.321 181.61 304.446 185.168 304.446 189.56V365.365C304.446 369.757 301.321 373.543 297.456 373.827Z" fill="url(#paint9_linear)"/>
<path d="M289.295 361.431L45.2439 378.132C41.4121 378.394 38.3247 375.404 38.3247 371.426V201.16C38.2937 199.292 39.0029 197.488 40.2983 196.139C41.5937 194.789 43.3709 194.004 45.2439 193.952L289.295 192.905C292.481 192.905 295.06 195.807 295.06 199.414V354.502C295.071 358.092 292.481 361.212 289.295 361.431Z" fill="url(#paint10_linear)"/>
<path d="M175.696 186.93C175.646 187.514 175.426 188.071 175.064 188.532C174.702 188.994 174.212 189.341 173.656 189.53C173.099 189.719 172.499 189.742 171.93 189.597C171.36 189.452 170.845 189.144 170.448 188.712C170.051 188.28 169.788 187.742 169.693 187.164C169.597 186.586 169.672 185.992 169.91 185.456C170.147 184.92 170.536 184.464 171.028 184.145C171.521 183.825 172.097 183.655 172.685 183.656C173.518 183.698 174.301 184.064 174.865 184.677C175.428 185.29 175.727 186.099 175.696 186.93Z" fill="white"/>
<path d="M307.9 372.757L26.9261 393.01L149.458 414.441C150.858 414.687 152.284 414.753 153.701 414.638L445.021 390.669L312.373 372.894C310.89 372.698 309.392 372.653 307.9 372.757Z" fill="url(#paint11_linear)"/>
<path d="M67.9284 393.168L301.847 376.069L374.242 385.694L142.338 403.971L67.9284 393.168Z" fill="url(#paint12_linear)"/>
<path d="M284.394 53.9335C296.777 54.31 307.178 61.8448 309.203 71.3929V71.431C309.312 71.9767 309.395 72.4841 309.455 73.0133C309.455 73.0515 309.455 73.0842 309.455 73.1224C309.455 73.3679 309.499 73.6189 309.515 73.8699C309.515 73.919 309.515 73.9627 309.515 74.0063C309.515 74.2627 309.515 74.5246 309.515 74.781C309.515 85.8677 298.162 94.2646 284.334 93.5553L283.239 93.4789H283.13C282.791 93.4462 282.446 93.4134 282.106 93.3698H281.948C281.619 93.3316 281.291 93.2825 280.968 93.2279L280.782 93.2006C280.464 93.1461 280.147 93.0915 279.834 93.0261L279.643 92.9879C279.331 92.9224 279.019 92.8569 278.712 92.7805L278.532 92.7369C278.225 92.666 277.919 92.5841 277.617 92.5023L277.459 92.4586C277.185 92.3823 276.911 92.3004 276.649 92.2131L276.446 92.1531L275.636 91.8803L275.461 91.8203C266.275 88.5139 259.816 81.0828 259.816 72.7732C259.881 61.9321 270.78 53.5134 284.394 53.9335Z" fill="#CC996E"/>
<path d="M257.26 72.7406C257.26 83.5381 268.159 92.8516 281.773 93.5554C295.59 94.2647 306.954 85.8678 306.954 74.7812C306.954 63.6945 295.601 54.3647 281.773 53.9446C268.159 53.5135 257.26 61.9322 257.26 72.7406Z" fill="url(#paint13_linear)"/>
<path d="M201.15 518.057C201.15 518.057 199.798 521.549 201.911 523.377C204.024 525.205 215.706 530.513 221.58 530.41C227.453 530.306 222.724 525.794 219.39 523.235C216.056 520.676 208.234 515.324 206.225 514.871C204.216 514.418 201.15 518.057 201.15 518.057Z" fill="#80D0C7"/>
<path d="M202.01 502.6C201.802 506.142 202.039 509.696 202.716 513.18C203.417 516.764 203.838 518.794 205.546 520.6C208.563 523.781 213.845 524.419 214.611 523.126C215.476 521.675 209.893 518.843 208.043 512.034C207.393 509.561 207.29 506.977 207.741 504.461L202.01 502.6Z" fill="#FFECB3"/>
<g filter="url(#filter2_d)">
<path d="M222.09 321.143C230 329.442 228.27 341.331 225.795 362.555C223.715 380.385 220.869 406.748 218.225 440.134C215.805 463.413 213.388 486.692 210.972 509.971H198.89C193.964 499.518 188.068 483.504 187.772 463.726C187.532 447.358 191.374 445.175 192.113 426.625C192.524 416.417 191.615 410.699 183.902 366.407C177.771 331.171 176.567 324.559 181.488 319.195C190.17 309.757 212.034 310.591 222.09 321.143Z" fill="url(#paint14_linear)"/>
</g>
<path style="mix-blend-mode:multiply" opacity="0.3" d="M197.928 483.384C200.003 476.886 205.526 470.252 205.898 457.37C206.342 442.175 199.028 438.383 200.101 424.132C201.13 410.437 208.219 409.438 210.25 395.946C212.61 380.276 203.867 376.178 200.824 357.65C198.054 340.736 202.066 324.27 206.249 313.259C196.861 311.552 186.755 313.478 181.495 319.217C176.568 324.581 177.778 331.221 183.909 366.429C191.616 410.721 192.525 416.439 192.12 426.647C191.381 445.197 187.538 447.38 187.779 463.748C188.075 483.526 193.959 499.54 198.897 509.993H202.899C196.434 498.312 195.886 489.751 197.928 483.384Z" fill="url(#paint15_linear)"/>
<path d="M123.09 513.796C123.09 513.796 120.966 516.884 122.597 519.154C124.228 521.423 134.377 529.258 140.114 530.502C145.851 531.746 142.304 526.274 139.627 523.022C136.95 519.77 130.6 512.765 128.744 511.859C126.889 510.953 123.09 513.796 123.09 513.796Z" fill="#80D0C7"/>
<path d="M127.476 498.956C126.462 502.355 125.874 505.866 125.725 509.41C125.577 513.06 125.522 515.133 126.77 517.277C128.96 521.064 133.963 522.886 134.981 521.817C136.164 520.605 131.379 516.562 131.149 509.513C131.09 506.957 131.587 504.418 132.605 502.071L127.476 498.956Z" fill="#FFECB3"/>
<g filter="url(#filter3_d)">
<path d="M188.906 326.992C194.686 336.878 190.269 348.02 182.955 368.142C176.83 384.995 167.978 410.006 157.67 441.88L134.499 508.198L122.751 505.405C120.353 494.1 118.323 477.17 122.603 457.85C126.145 441.847 130.382 440.636 135.385 422.746C138.122 412.925 138.577 407.13 141.297 362.26C143.487 326.567 143.81 319.856 149.837 315.764C160.473 308.567 181.554 314.394 188.906 326.992Z" fill="url(#paint16_linear)"/>
</g>
<path style="mix-blend-mode:multiply" opacity="0.3" d="M127.946 479.314C131.471 473.47 138.374 468.276 141.713 455.853C145.649 441.165 139.409 435.802 143.739 422.178C147.899 409.084 155.026 409.744 160.117 397.08C166.035 382.349 158.475 376.375 159.783 357.644C160.988 340.561 168.695 325.453 175.308 315.687C166.549 311.868 156.285 311.437 149.837 315.813C143.815 319.905 143.46 326.616 141.297 362.309C138.56 407.179 138.139 412.957 135.385 422.795C130.382 440.685 126.145 441.891 122.603 457.899C118.323 477.219 120.353 494.149 122.751 505.454L126.643 506.37C123.058 493.472 124.497 485.048 127.946 479.314Z" fill="url(#paint17_linear)"/>
<path d="M311.857 108.636L311.682 103.272L318.059 100.244C318.753 99.916 319.533 99.8162 320.287 99.9594C321.041 100.103 321.729 100.481 322.253 101.041C327.94 107.119 344.412 127.432 341.412 156.06C341.333 156.797 341.028 157.493 340.538 158.051C340.048 158.61 339.398 159.004 338.675 159.181C336.809 159.621 334.919 159.952 333.015 160.174L311.857 108.636Z" fill="url(#paint18_linear)"/>
<path d="M261.235 160.376L259.209 173.235C259.209 173.235 258.114 176.776 258.202 178.326C256.182 179.663 252.416 179.324 252.416 179.324L250.292 163.278L260.841 160.196L261.235 160.376Z" fill="#8BC34A"/>
<path d="M265 175.903L262.433 171.348C261.44 170.196 260.184 169.3 258.769 168.737C257.355 168.174 255.825 167.959 254.309 168.112C248.901 168.521 249.547 171.342 249.547 171.342L253.198 171.642C253.198 171.642 255.552 171.822 257.747 174.714C259.266 176.309 261.056 177.624 263.035 178.599L265 175.903Z" fill="#FFECB3"/>
<path d="M241.451 151.919C241.451 151.919 294.095 127.912 311.684 103.273C337.056 120.732 333.033 160.174 333.033 160.174C333.033 160.174 270.08 158.913 246.542 166.841C240.449 163.082 241.451 151.919 241.451 151.919Z" fill="url(#paint19_linear)"/>
<path d="M197.97 186.297C203.805 185.446 213.248 186.324 222.746 179.848C225.603 177.9 235.73 170.988 235.292 160.108C234.904 150.527 226.2 144.831 225.133 144.133C218.963 140.188 212.542 140.543 205.388 141.039C196.12 141.678 192.907 143.969 186.409 145.257C170.348 148.443 165.607 139.255 149.667 138.922C129.298 138.524 126.533 153.354 109.427 152.562C90.218 151.7 87.7985 132.746 69.0716 128.31C43.0861 122.178 1.41727 147.728 0.0159047 180.29C-0.788787 199.103 11.7962 221.56 29.2804 229.214C39.4732 233.677 50.821 233.236 53.5854 240.219C55.5506 245.19 50.1531 248.556 50.0765 256.986C49.9725 267.849 58.8351 276.082 60.2364 277.391C73.4837 289.711 105.288 286.061 127.825 271.39C168.487 244.917 166.237 190.918 197.97 186.297Z" fill="url(#paint20_linear)"/>
<g filter="url(#filter4_d)">
<path fill-rule="evenodd" clip-rule="evenodd" d="M143.111 185.811C151.249 179.821 159.087 174.051 170.261 174.256C171.24 174.274 172.209 174.337 173.167 174.443C187.397 175.375 204.471 176.782 221.809 179.788C227.625 180.798 232.53 182.082 236.64 183.595C247.965 182.757 269.319 193.101 271.232 194.028C272.383 194.588 273.514 195.164 274.57 195.702C277.719 197.306 280.206 198.572 280.587 198.05C281.452 196.866 270.662 187.568 260.962 179.543L265.927 173.819C267.75 173.95 297.797 176.547 308.57 200.199L308.589 200.24C310.099 203.572 315.49 215.467 310.289 224.942C301.742 240.501 268.478 242.424 248.543 227.944C243.642 239.48 240.906 251.828 240.486 264.373C240.098 273.763 241.296 281.39 243.7 296.646C245.016 304.998 246.318 311.343 247.339 316.316C249.557 327.121 250.446 331.452 247.263 335.831C240.508 345.155 223.456 343.529 220.473 343.186C212.358 342.249 207.842 339.198 203.437 336.222C199.633 333.652 195.912 331.138 190.026 330.091C181.587 328.587 176.605 331.508 169.924 335.426C164.926 338.358 158.976 341.846 149.917 344.457C124.928 351.659 93.6765 347.218 80.1883 329.96C74.9824 323.298 71.9771 314.372 74.5609 311.797C76.0839 310.295 78.934 311.554 82.6799 313.208C87.6585 315.406 94.2196 318.303 101.351 316.347C105.658 315.167 107.639 312.912 109.969 310.259C112.12 307.811 114.567 305.025 119.416 302.434C126.159 298.832 131.159 299.017 135.68 299.185C139.306 299.319 142.623 299.442 146.283 297.589C156.687 292.314 157.855 277.143 159.725 252.859L159.725 252.859C159.951 249.928 160.187 246.865 160.45 243.671C126.284 252.574 85.2081 244.042 62.1755 216.78C56.8163 210.435 46.0324 195.501 43.5088 170.011L56.2251 165.155C83.3219 195.19 103.269 200.188 116.988 198.437C127.85 197.044 135.608 191.334 143.111 185.811Z" fill="url(#paint21_linear)"/>
</g>
<path d="M218.251 160.976C217.955 160.733 217.606 160.563 217.232 160.481C216.858 160.398 216.47 160.404 216.099 160.5C215.728 160.595 215.385 160.776 215.098 161.028C214.811 161.281 214.588 161.597 214.446 161.952C212.755 166.181 209.361 173.339 205.288 174.91C199.425 177.169 190.946 175.456 189.791 176.411C188.636 177.366 214.315 192.932 232.462 187.868C232.589 187.832 232.713 187.786 232.834 187.732L233.879 187.257C234.336 187.052 234.717 186.711 234.971 186.28C235.225 185.85 235.339 185.352 235.298 184.855C235.257 184.357 235.062 183.885 234.74 183.502C234.418 183.12 233.986 182.846 233.502 182.718C230.13 181.818 221.344 178.653 219.357 174.61C219.127 174.146 219.291 170.627 219.389 170.12L220.484 164.473C220.568 164.045 220.535 163.603 220.387 163.193C220.24 162.783 219.984 162.42 219.647 162.143L218.251 160.976Z" fill="#FFECB3"/>
<path d="M213.861 163.671C213.861 163.671 216.401 168.996 222.138 168.036C227.272 167.19 226.741 154.276 223.194 152.148C222.012 151.444 219.636 151.209 217.89 151.891C216.663 152.366 213.051 155.449 213.959 159.83C212.815 159.252 211.682 159.372 211.304 159.917C210.817 160.616 211.655 161.843 211.852 162.1C212.34 162.82 213.042 163.37 213.861 163.671Z" fill="#FFE082"/>
<path d="M52.6653 166.53L50.9136 162.427C50.9136 162.427 62.3599 146.31 54.0886 143.047C45.8172 139.784 47.8755 144.744 48.6801 147.101C49.4848 149.458 47.4375 156.834 45.8172 159.022C44.1969 161.21 46.2332 168.99 46.2332 168.99L52.6653 166.53Z" fill="#FFECB3"/>
<g style="mix-blend-mode:multiply" opacity="0.3">
<path d="M114.934 330.948C120.512 327.674 117.321 320.347 123.742 315.022C129.616 310.149 135.451 313.674 145.513 311.53C157.61 308.949 167.453 299.963 172.243 291.855C175.658 286.077 175.68 282.143 174.98 251.311C174.312 221.947 174.049 214.756 170.349 213.572C163.621 211.389 156.039 232.423 142.633 231.528C135.057 231.02 134.493 224.113 125.193 219.901C109.405 212.748 96.8698 226.235 79.5935 224.549C75.1814 224.118 69.888 222.607 63.9978 218.761C87.323 244.404 127.152 252.364 160.468 243.678C158.021 273.316 157.944 291.691 146.295 297.584C138.084 301.747 131.581 295.947 119.429 302.429C109.334 307.825 109.646 314.072 101.364 316.342C88.8667 319.768 78.121 308.294 74.5738 311.792C72.209 314.127 74.5026 321.667 78.8326 328.029C81.8401 326.991 84.9946 326.438 88.1769 326.392C101.025 326.266 108.354 334.789 114.934 330.948Z" fill="#80D0C7"/>
</g>
<path d="M201.785 69.7833C202.629 70.1475 203.581 70.1776 204.447 69.8675C205.312 69.5574 206.027 68.9303 206.445 68.1138C206.863 67.2973 206.954 66.3526 206.699 65.4719C206.443 64.5911 205.861 63.8405 205.07 63.3725C204.987 63.3288 204.9 63.2961 204.812 63.2579C205.116 62.2925 205.346 61.3059 205.502 60.3062H205.787C206.716 60.1928 207.57 59.7392 208.183 59.0334C208.796 58.3277 209.124 57.4202 209.104 56.4869C209.112 56.0421 209.026 55.6006 208.852 55.1909C208.677 54.7813 208.419 54.4126 208.093 54.1087C207.767 53.8048 207.38 53.5725 206.959 53.4267C206.537 53.2809 206.089 53.225 205.644 53.2624C205.547 53.2694 205.45 53.2822 205.354 53.3006C205.159 52.3418 204.892 51.3989 204.555 50.4798C204.637 50.4307 204.725 50.3762 204.807 50.3162C205.575 49.7851 206.117 48.9884 206.329 48.0808C206.54 47.1733 206.406 46.2198 205.951 45.4057C205.719 45.026 205.409 44.699 205.042 44.4459C204.675 44.1929 204.259 44.0194 203.82 43.9366C203.382 43.8538 202.931 43.8636 202.496 43.9654C202.062 44.0671 201.654 44.2585 201.298 44.5273C201.216 44.5819 201.139 44.6473 201.063 44.7073C200.424 44.0069 199.729 43.3608 198.982 42.7759C199.037 42.6886 199.086 42.6013 199.136 42.5086C200.039 40.7408 201.216 38.8039 199.563 38.0019C195.731 36.1414 194.089 37.7345 193.196 39.5023C193.147 39.595 193.109 39.6878 193.07 39.7805C192.157 39.5211 191.223 39.3386 190.279 39.2349C190.284 39.1368 190.284 39.0384 190.279 38.9403C190.24 36.987 190.826 35.934 188.943 35.9013C184.848 35.8194 183.469 37.5927 183.502 39.5405C183.502 39.6441 183.502 39.7423 183.502 39.8406C182.564 40.1093 181.649 40.4505 180.765 40.8608C180.721 40.7735 180.677 40.6862 180.628 40.6044C180.395 40.2245 180.085 39.8974 179.717 39.6443C179.35 39.3912 178.933 39.2177 178.494 39.1349C178.055 39.0522 177.604 39.062 177.169 39.1638C176.734 39.2656 176.325 39.4571 175.969 39.726C175.202 40.2578 174.661 41.0549 174.45 41.9624C174.24 42.8699 174.375 43.823 174.831 44.6364C174.88 44.7183 174.935 44.7946 174.989 44.871C174.271 45.5869 173.607 46.3547 173.002 47.168C172.92 47.1189 172.844 47.0698 172.756 47.0262C171.913 46.6747 170.968 46.6536 170.11 46.9671C169.252 47.2806 168.545 47.9056 168.13 48.7168C167.714 49.528 167.622 50.4657 167.871 51.342C168.12 52.2182 168.691 52.9685 169.472 53.4425L169.734 53.5516C169.431 54.519 169.201 55.5074 169.045 56.5088C168.95 56.5033 168.855 56.5033 168.76 56.5088C167.83 56.621 166.975 57.0743 166.362 57.7803C165.748 58.4862 165.421 59.3945 165.443 60.328C165.435 60.7729 165.521 61.2144 165.695 61.624C165.869 62.0337 166.128 62.4024 166.454 62.7063C166.78 63.0102 167.166 63.2425 167.588 63.3883C168.01 63.534 168.457 63.59 168.902 63.5525L169.192 63.5143C169.384 64.474 169.651 65.4172 169.992 66.3351C169.904 66.3842 169.822 66.4333 169.734 66.4933C168.969 67.0268 168.429 67.8238 168.219 68.7306C168.009 69.6375 168.143 70.5898 168.596 71.4038C169.565 73.0079 172.772 73.7499 174.376 72.6314C174.458 72.5768 173.407 72.1622 173.484 72.0858C174.122 72.7848 174.816 73.4307 175.559 74.0172C175.505 74.102 175.456 74.1894 175.411 74.2791C175.175 74.6708 175.022 75.1069 174.962 75.56C174.902 76.0132 174.937 76.4738 175.063 76.9131C175.19 77.3524 175.406 77.7609 175.698 78.1133C175.99 78.4658 176.352 78.7544 176.761 78.9614C177.17 79.1683 177.617 79.2892 178.075 79.3163C178.532 79.3434 178.991 79.2762 179.422 79.119C179.852 78.9617 180.246 78.7178 180.577 78.4023C180.909 78.0869 181.172 77.7066 181.35 77.2854C181.4 77.1926 181.438 77.0999 181.476 77.0071C182.39 77.267 183.324 77.4496 184.268 77.5527C184.268 77.6509 184.268 77.7491 184.268 77.8474C184.26 78.2922 184.346 78.7337 184.52 79.1434C184.695 79.5531 184.953 79.9217 185.279 80.2256C185.605 80.5295 185.992 80.7618 186.413 80.9076C186.835 81.0534 187.283 81.1093 187.728 81.0719C188.658 80.9608 189.514 80.5079 190.127 79.8017C190.741 79.0954 191.068 78.1865 191.045 77.2526C191.051 77.1527 191.051 77.0525 191.045 76.9526C191.981 76.6805 192.896 76.3394 193.782 75.9323C193.821 76.021 193.867 76.1068 193.919 76.1887C194.151 76.5685 194.461 76.8954 194.828 77.1485C195.195 77.4016 195.611 77.5751 196.05 77.6579C196.488 77.7407 196.939 77.7308 197.374 77.6291C197.808 77.5273 198.216 77.3359 198.572 77.0671C199.339 76.5353 199.881 75.7386 200.092 74.8314C200.303 73.9242 200.169 72.971 199.716 72.1567C199.667 72.0756 199.614 71.9973 199.557 71.9221C200.275 71.2043 200.94 70.4347 201.544 69.6196C201.621 69.6786 201.702 69.7332 201.785 69.7833ZM181.334 70.0452C175.378 67.028 173.199 59.3732 176.478 52.946C179.757 46.5188 187.235 43.7471 193.191 46.7643C199.147 49.7815 201.32 57.4308 198.046 63.8635C194.773 70.2962 187.29 73.0569 181.334 70.0452Z" fill="#AED581"/>
<path d="M205.765 60.2953C206.694 60.1819 207.548 59.7283 208.161 59.0225C208.774 58.3168 209.103 57.4093 209.082 56.476C209.09 56.0312 209.004 55.5897 208.83 55.18C208.655 54.7703 208.397 54.4017 208.071 54.0978C207.745 53.7939 207.358 53.5616 206.937 53.4158C206.515 53.27 206.067 53.2141 205.622 53.2515C205.525 53.2585 205.428 53.2713 205.332 53.2897C205.137 52.3309 204.87 51.388 204.533 50.4689C204.615 50.4198 204.703 50.3653 204.785 50.3053C206.389 49.214 208.37 46.486 207.237 44.9911C205.097 42.1485 202.858 43.3543 201.276 44.5C201.194 44.5546 201.117 44.6201 201.041 44.6801C200.402 43.9796 199.707 43.3335 198.96 42.7486C199.015 42.6613 199.064 42.574 199.114 42.4813C199.347 42.0327 199.485 41.5415 199.521 41.0377C199.557 40.5339 199.489 40.0282 199.322 39.5514C197.778 42.2685 196.254 44.9965 194.751 47.7355C199.502 51.2055 201.019 58.0474 198.035 63.8799C195.517 68.8176 190.514 71.5947 185.631 71.2455C185.412 71.7911 185.199 72.3749 184.963 72.9315C184.334 74.4482 183.611 75.9323 182.894 77.4109C183.343 77.4982 183.797 77.5636 184.257 77.6127C184.257 77.7109 184.257 77.8092 184.257 77.9074C184.295 79.8552 185.483 81.5138 188.877 81.3338C190.755 81.2356 191.067 79.255 191.034 77.3072C191.04 77.2073 191.04 77.1071 191.034 77.0071C191.97 76.735 192.885 76.394 193.771 75.9869C193.81 76.0756 193.856 76.1613 193.908 76.2433C194.877 77.8474 198.238 78.5294 199.842 77.4109C201.446 76.2924 200.674 73.799 199.705 72.1949C199.656 72.1138 199.603 72.0355 199.546 71.9603C200.264 71.2425 200.928 70.4729 201.533 69.6578C201.613 69.7095 201.695 69.7568 201.78 69.7997C202.624 70.1639 203.575 70.194 204.441 69.8839C205.307 69.5737 206.021 68.9467 206.44 68.1302C206.858 67.3136 206.948 66.369 206.693 65.4882C206.437 64.6075 205.855 63.8568 205.064 63.3888C204.982 63.3452 204.894 63.3125 204.807 63.2743C205.11 62.3089 205.341 61.3222 205.496 60.3225L205.765 60.2953Z" fill="#6CB6FA"/>
<path d="M203.548 70.0126C204.393 70.3768 205.344 70.4069 206.21 70.0968C207.075 69.7867 207.79 69.1596 208.208 68.3431C208.627 67.5265 208.717 66.5819 208.462 65.7012C208.206 64.8204 207.624 64.0697 206.833 63.6017L206.57 63.4872C206.873 62.5198 207.104 61.5314 207.26 60.53C207.355 60.5354 207.45 60.5354 207.545 60.53C208.475 60.4189 209.331 59.966 209.944 59.2598C210.558 58.5535 210.885 57.6446 210.862 56.7108C210.869 56.2659 210.782 55.8246 210.608 55.4151C210.433 55.0056 210.175 54.6369 209.849 54.3328C209.523 54.0286 209.137 53.7957 208.716 53.649C208.295 53.5023 207.847 53.445 207.402 53.4808L207.112 53.5244C206.922 52.5644 206.654 51.6211 206.313 50.7037L206.57 50.54C207.337 50.0082 207.879 49.211 208.089 48.3035C208.3 47.396 208.164 46.443 207.709 45.6295C207.477 45.2494 207.167 44.9219 206.801 44.6683C206.434 44.4147 206.018 44.2406 205.579 44.1573C205.141 44.074 204.69 44.0834 204.255 44.1847C203.82 44.286 203.412 44.4771 203.056 44.7457L202.82 44.9312C202.184 44.2307 201.49 43.5847 200.746 42.9997C200.795 42.9124 200.85 42.8251 200.893 42.7324C201.13 42.3407 201.283 41.9046 201.342 41.4515C201.402 40.9983 201.368 40.5377 201.241 40.0984C201.114 39.6591 200.898 39.2505 200.606 38.8981C200.314 38.5457 199.952 38.2571 199.544 38.0501C199.135 37.8431 198.687 37.7223 198.23 37.6952C197.772 37.6681 197.313 37.7353 196.883 37.8925C196.452 38.0498 196.059 38.2937 195.727 38.6092C195.395 38.9246 195.132 39.3049 194.954 39.7261C194.905 39.8189 194.867 39.9116 194.828 40.0044C193.915 39.7444 192.981 39.5619 192.036 39.4588C192.036 39.3605 192.036 39.2623 192.036 39.1587C192.044 38.7138 191.958 38.2723 191.784 37.8626C191.61 37.453 191.351 37.0843 191.025 36.7804C190.699 36.4765 190.313 36.2442 189.891 36.0984C189.469 35.9527 189.022 35.8967 188.577 35.9341C187.646 36.0452 186.791 36.4981 186.177 37.2044C185.564 37.9106 185.236 38.8195 185.259 39.7534C185.254 39.8533 185.254 39.9535 185.259 40.0535C184.322 40.3231 183.407 40.6642 182.522 41.0737C182.483 40.9832 182.438 40.8957 182.386 40.8119C182.153 40.4321 181.844 40.1051 181.476 39.8521C181.109 39.599 180.693 39.4255 180.255 39.3427C179.816 39.2599 179.365 39.2697 178.931 39.3715C178.496 39.4732 178.088 39.6647 177.733 39.9334C176.966 40.466 176.425 41.2627 176.214 42.1696C176.003 43.0765 176.136 44.0292 176.588 44.8439C176.638 44.9257 176.693 45.0021 176.747 45.0785C176.029 45.7946 175.365 46.5623 174.76 47.3755C174.681 47.3238 174.598 47.2765 174.514 47.2336C173.67 46.8694 172.718 46.8393 171.852 47.1494C170.987 47.4596 170.272 48.0866 169.854 48.9031C169.436 49.7197 169.345 50.6643 169.6 51.5451C169.856 52.4258 170.438 53.1765 171.229 53.6445C171.313 53.6881 171.398 53.7264 171.487 53.759C171.184 54.7264 170.953 55.7149 170.797 56.7162H170.512C169.583 56.8296 168.728 57.2832 168.115 57.9889C167.503 58.6947 167.174 59.6022 167.195 60.5355C167.188 60.9803 167.275 61.4216 167.449 61.8311C167.624 62.2406 167.882 62.6093 168.208 62.9134C168.533 63.2176 168.919 63.4505 169.341 63.5972C169.762 63.7439 170.21 63.8012 170.655 63.7654L170.945 63.7218C171.14 64.6806 171.407 65.6234 171.744 66.5426C171.662 66.5971 171.574 66.6462 171.492 66.7062C170.725 67.2381 170.183 68.0348 169.972 68.942C169.76 69.8492 169.895 70.8023 170.348 71.6167C170.581 71.9962 170.89 72.323 171.257 72.5761C171.624 72.8292 172.04 73.003 172.478 73.0863C172.916 73.1695 173.367 73.1604 173.802 73.0595C174.236 72.9587 174.645 72.7682 175.001 72.5005L175.236 72.315C175.875 73.0155 176.57 73.6616 177.317 74.2465C177.262 74.3338 177.213 74.4211 177.163 74.5138C176.927 74.9056 176.774 75.3416 176.714 75.7948C176.655 76.2479 176.689 76.7085 176.816 77.1478C176.942 77.5871 177.158 77.9957 177.451 78.3481C177.743 78.7005 178.104 78.9892 178.513 79.1961C178.922 79.4031 179.369 79.5239 179.827 79.551C180.285 79.5781 180.743 79.5109 181.174 79.3537C181.604 79.1964 181.998 78.9525 182.33 78.637C182.662 78.3216 182.925 77.9414 183.103 77.5201C183.152 77.4274 183.19 77.3346 183.229 77.2419C184.142 77.5013 185.076 77.6838 186.02 77.7875C186.015 77.8874 186.015 77.9876 186.02 78.0875C186.013 78.5324 186.099 78.9739 186.273 79.3836C186.447 79.7932 186.705 80.1619 187.032 80.4658C187.358 80.7697 187.744 81.002 188.166 81.1478C188.587 81.2936 189.035 81.3495 189.48 81.3121C190.41 81.1998 191.265 80.7466 191.878 80.0406C192.491 79.3346 192.819 78.4264 192.797 77.4928C192.797 77.3946 192.797 77.291 192.797 77.1928C193.735 76.924 194.65 76.5828 195.534 76.1725C195.578 76.2598 195.622 76.3471 195.671 76.4289C195.904 76.8086 196.214 77.1355 196.582 77.3886C196.949 77.6418 197.365 77.8156 197.804 77.8988C198.243 77.982 198.694 77.9729 199.129 77.872C199.564 77.7711 199.973 77.5806 200.33 77.3128C201.095 76.7794 201.635 75.9823 201.845 75.0755C202.055 74.1687 201.921 73.2163 201.468 72.4023C201.419 72.3205 201.364 72.2441 201.31 72.1677C202.029 71.453 202.693 70.6852 203.297 69.8707C203.384 69.8926 203.461 69.9417 203.548 70.0126ZM183.097 70.269C177.141 67.2573 174.968 59.6025 178.242 53.1752C181.515 46.748 188.998 43.9764 194.954 46.9935C200.91 50.0107 203.105 57.6328 199.821 64.0601C196.536 70.4873 189.053 73.2862 183.097 70.2418V70.269Z" fill="#8BC34A"/>
<path d="M139.413 111.866C142.627 113.503 146.666 111.997 148.429 108.527C150.192 105.057 149.026 100.932 145.812 99.3059C145.647 99.2223 145.477 99.1476 145.303 99.0822C145.895 97.1881 146.347 95.2533 146.655 93.2934C146.836 93.2934 147.022 93.2934 147.203 93.2934C150.871 92.9715 153.772 89.6105 153.706 85.7967C153.64 81.983 150.591 79.1458 146.929 79.4732C146.738 79.4732 146.546 79.5223 146.382 79.555C146.002 77.6749 145.477 75.8271 144.811 74.0281C144.98 73.9299 145.15 73.8262 145.314 73.7116C148.451 71.5292 149.453 67.1971 147.553 64.0544C145.654 60.9117 141.57 60.1424 138.433 62.3303C138.276 62.4431 138.123 62.5631 137.974 62.6904C136.726 61.3178 135.365 60.0513 133.906 58.9039C134.005 58.7348 134.109 58.5656 134.202 58.3856C135.965 54.9156 138.275 51.1291 135.034 49.5523C127.545 45.9076 124.327 49.0067 122.564 52.4931C122.471 52.6731 122.394 52.8586 122.318 53.0387C120.525 52.5404 118.694 52.1936 116.844 52.002C116.844 51.8056 116.844 51.6146 116.844 51.4182C116.767 47.599 117.906 45.5366 114.221 45.4657C106.213 45.2856 103.476 48.7611 103.574 52.5531C103.576 52.7501 103.589 52.9468 103.613 53.1423C101.763 53.6689 99.9567 54.3366 98.2097 55.1393C98.1276 54.9701 98.04 54.801 97.9415 54.6373C96.042 51.4946 91.9583 50.7199 88.8217 52.9132C85.685 55.1065 84.6832 59.4277 86.5828 62.5704C86.6785 62.7286 86.7827 62.8815 86.8948 63.0287C85.4874 64.431 84.1864 65.9355 83.0027 67.5299C82.844 67.4317 82.6852 67.339 82.521 67.2517C79.3077 65.6149 75.2678 67.1207 73.5051 70.5908C71.7425 74.0608 72.9085 78.1965 76.1053 79.8333C76.2709 79.9169 76.4408 79.9916 76.6144 80.057C76.0284 81.9479 75.582 83.8791 75.2788 85.8349C75.0981 85.8349 74.912 85.8349 74.7313 85.8349C71.0637 86.1623 68.1624 89.5178 68.2281 93.337C68.2938 97.1562 71.3374 100.021 75.0105 99.6878C75.2021 99.6878 75.3937 99.6387 75.5579 99.606C75.9373 101.486 76.4625 103.334 77.129 105.133C76.9593 105.231 76.7896 105.335 76.6254 105.449C73.4887 107.632 72.487 111.964 74.3865 115.107C76.286 118.249 82.5976 119.706 85.7124 117.518C85.8766 117.404 83.8183 116.596 83.9661 116.476C85.2147 117.848 86.5771 119.113 88.0389 120.257C87.9349 120.426 87.8308 120.601 87.7378 120.803C85.9751 124.273 87.1466 128.403 90.3599 130.029C93.5732 131.655 97.6131 130.165 99.3757 126.695C99.4688 126.515 99.5509 126.33 99.622 126.15C101.414 126.65 103.245 126.998 105.096 127.192C105.096 127.383 105.096 127.574 105.096 127.77C105.173 131.589 108.205 134.416 111.873 134.094C115.541 133.772 118.442 130.411 118.371 126.592C118.369 126.395 118.356 126.198 118.333 126.002C120.182 125.476 121.988 124.808 123.735 124.005C123.818 124.175 123.905 124.344 124.004 124.507C125.903 127.65 129.987 128.425 133.124 126.231C136.26 124.038 137.267 119.717 135.368 116.574C135.269 116.416 135.16 116.263 135.05 116.116C136.458 114.712 137.761 113.208 138.948 111.615C139.094 111.695 139.249 111.778 139.413 111.866ZM99.3538 112.373C87.683 106.464 83.4242 91.471 89.8398 78.8785C96.2555 66.2859 110.915 60.8735 122.58 66.7715C134.246 72.6695 138.51 87.6682 132.094 100.261C125.679 112.853 111.019 118.277 99.3538 112.373Z" fill="#AED581"/>
<path d="M147.209 93.2715C150.877 92.9496 153.778 89.5887 153.712 85.7749C153.646 81.9612 150.597 79.124 146.935 79.4514C146.744 79.4514 146.552 79.5005 146.388 79.5332C146.008 77.6531 145.483 75.8053 144.817 74.0063C144.986 73.908 145.156 73.8044 145.32 73.6898C148.457 71.5074 152.338 66.2041 150.121 63.2742C145.923 57.709 141.576 60.1206 138.439 62.3085C138.282 62.4213 138.129 62.5413 137.98 62.6686C136.732 61.296 135.371 60.0295 133.912 58.8821C134.011 58.713 134.115 58.5438 134.208 58.3638C134.663 57.4848 134.934 56.5227 135.005 55.5359C135.076 54.5492 134.944 53.5585 134.619 52.624C131.586 57.9382 128.601 63.2779 125.663 68.643C134.969 75.4412 137.936 88.8303 132.117 100.261C127.19 109.94 117.386 115.374 107.817 114.692C107.39 115.783 106.969 116.907 106.514 117.998C105.272 120.966 103.86 123.869 102.453 126.772C103.34 126.935 104.232 127.066 105.124 127.164C105.124 127.355 105.124 127.546 105.124 127.743C105.201 131.562 107.527 134.803 114.173 134.454C117.846 134.257 118.475 130.384 118.399 126.564C118.397 126.367 118.384 126.171 118.36 125.975C120.21 125.448 122.016 124.781 123.763 123.978C123.845 124.147 123.933 124.316 124.032 124.48C125.92 127.623 132.489 128.938 135.62 126.755C138.751 124.573 137.262 119.662 135.357 116.536C135.259 116.378 135.149 116.225 135.04 116.078C136.448 114.674 137.75 113.17 138.938 111.577C139.091 111.675 139.25 111.768 139.414 111.855C142.627 113.492 146.667 111.986 148.435 108.516C150.203 105.046 149.026 100.921 145.813 99.295C145.647 99.2114 145.478 99.1367 145.304 99.0713C145.896 97.1772 146.348 95.2424 146.656 93.2824C146.837 93.2934 147.023 93.2879 147.209 93.2715Z" fill="#AED581"/>
<path d="M142.89 112.253C146.103 113.89 150.138 112.39 151.906 108.92C153.674 105.45 152.497 101.325 149.284 99.6934C149.12 99.6116 148.95 99.5406 148.78 99.4752C149.37 97.5808 149.82 95.6461 150.127 93.6863C150.313 93.6863 150.499 93.6863 150.674 93.6863C154.342 93.359 157.243 90.0035 157.172 86.1843C157.101 82.365 154.057 79.517 150.39 79.8334C150.206 79.8502 150.023 79.8775 149.842 79.9152C149.457 78.0313 148.926 76.1798 148.255 74.3774C148.424 74.2792 148.589 74.1809 148.753 74.0664C151.89 71.884 152.891 67.5519 150.992 64.4092C149.092 61.2665 145.009 60.4972 141.872 62.6851C141.713 62.7997 141.56 62.9197 141.412 63.0397C140.167 61.6663 138.806 60.4013 137.345 59.2587C137.447 59.0877 137.546 58.9058 137.64 58.7131C139.409 55.2485 138.237 51.1183 135.018 49.4924C131.8 47.8665 127.771 49.356 126.003 52.826C125.909 53.0061 125.833 53.1861 125.756 53.3716C123.964 52.8712 122.133 52.5226 120.282 52.3295C120.282 52.1385 120.282 51.9476 120.282 51.7512C120.205 47.9319 117.167 45.1002 113.5 45.4276C109.832 45.755 106.931 49.1104 107.002 52.9297C107.002 53.1261 107.002 53.3225 107.04 53.5189C105.191 54.0473 103.385 54.7149 101.637 55.5158C101.555 55.3467 101.468 55.1776 101.369 55.0139C99.4696 51.8712 95.3859 51.0964 92.2493 53.2898C89.1126 55.4831 88.1109 59.8043 90.0104 62.947C90.1089 63.107 90.2129 63.2598 90.3224 63.4053C88.9165 64.809 87.6157 66.3134 86.4303 67.9065C86.277 67.8083 86.1183 67.7155 85.9486 67.6282C82.7353 65.9914 78.7009 67.4973 76.9328 70.9673C75.1646 74.4374 76.3416 78.5622 79.5549 80.1881C79.7181 80.2727 79.8862 80.3474 80.0585 80.4118C79.4681 82.3059 79.018 84.2408 78.7118 86.2006C78.5257 86.2006 78.3396 86.2006 78.1644 86.2006C74.4968 86.5225 71.5955 89.8834 71.6667 93.6972C71.7379 97.511 74.776 100.348 78.4436 100.021C78.6352 100.021 78.8213 99.9717 78.991 99.9389C79.3711 101.819 79.8963 103.667 80.5621 105.466C80.3924 105.564 80.2282 105.668 80.0639 105.782C76.9273 107.965 75.9255 112.297 77.825 115.44C79.7246 118.582 83.8028 119.352 86.9394 117.164C87.1036 117.049 87.2569 116.929 87.4047 116.804C88.6499 118.179 90.0106 119.446 91.472 120.59C91.368 120.759 91.2694 120.928 91.1764 121.108C89.4082 124.578 90.5797 128.709 93.793 130.335C97.0063 131.96 101.046 130.465 102.814 127.001C102.907 126.821 102.984 126.635 103.061 126.455C104.853 126.954 106.684 127.301 108.535 127.492C108.535 127.688 108.535 127.879 108.535 128.076C108.611 131.895 111.649 134.721 115.317 134.399C118.985 134.077 121.886 130.711 121.815 126.897C121.815 126.695 121.815 126.499 121.771 126.308C123.622 125.781 125.43 125.113 127.179 124.311C127.262 124.48 127.349 124.649 127.448 124.813C129.347 127.956 133.431 128.725 136.568 126.537C139.704 124.349 140.706 120.023 138.806 116.88C138.708 116.724 138.604 116.571 138.494 116.422C139.899 115.017 141.2 113.512 142.387 111.92C142.547 112.042 142.715 112.153 142.89 112.253ZM102.825 112.761C91.1599 106.857 86.9011 91.864 93.3167 79.2714C99.7324 66.6789 114.387 61.2665 126.057 67.159C137.728 73.0516 141.981 88.0611 135.566 100.654C129.15 113.246 114.48 118.67 102.809 112.761H102.825Z" fill="#8BC34A"/>
<path d="M359.084 55.2813H363.2V72.195C363.2 72.3547 363.263 72.5079 363.376 72.6213C363.489 72.7347 363.642 72.7992 363.802 72.8006H370.782C370.943 72.8006 371.097 72.7368 371.211 72.6232C371.325 72.5096 371.389 72.3556 371.389 72.195V55.3522H376.119C376.27 55.3528 376.415 55.2971 376.527 55.1961C376.638 55.0951 376.707 54.9561 376.721 54.8066L377.438 48.5867C377.449 48.5025 377.441 48.4171 377.415 48.3361C377.39 48.2552 377.347 48.1806 377.29 48.1175C377.233 48.0543 377.163 48.0037 377.085 47.969C377.006 47.9343 376.922 47.9161 376.836 47.9156H371.362V44.02C371.362 42.8415 371.997 42.2468 373.245 42.2468H376.809C376.888 42.2475 376.967 42.2325 377.041 42.2027C377.115 42.1728 377.182 42.1287 377.238 42.0729C377.295 42.0171 377.339 41.9507 377.37 41.8775C377.401 41.8044 377.416 41.7259 377.416 41.6466V35.945C377.416 35.8658 377.401 35.7873 377.37 35.7141C377.339 35.6409 377.295 35.5745 377.238 35.5187C377.182 35.4629 377.115 35.4188 377.041 35.389C376.967 35.3591 376.888 35.3442 376.809 35.3449H371.707C369.444 35.3543 367.26 36.1755 365.554 37.6582C364.748 38.3587 364.13 39.2482 363.755 40.2465C363.38 41.2448 363.261 42.3204 363.408 43.3762V47.932H359.089C358.928 47.932 358.773 47.9958 358.659 48.1093C358.545 48.2229 358.481 48.377 358.481 48.5376V54.6756C358.481 54.7549 358.496 54.8335 358.526 54.907C358.556 54.9804 358.6 55.0472 358.656 55.1035C358.712 55.1599 358.778 55.2045 358.852 55.235C358.925 55.2655 359.004 55.2813 359.084 55.2813Z" fill="white"/>
<g style="mix-blend-mode:multiply" opacity="0.3">
<path style="mix-blend-mode:multiply" opacity="0.3" d="M358.377 74.661C362.373 66.5206 358.333 58.7294 363.747 53.4425C369.33 47.9864 376.704 53.1369 384.806 48.6248C387.981 46.857 391.544 43.4524 394.216 36.4087C398.896 41.2809 401.704 47.4572 401.704 54.1845C401.704 70.4653 385.534 82.9542 366.467 82.1194C362.402 81.9496 358.387 81.1527 354.567 79.7569C356.139 78.3054 357.431 76.578 358.377 74.661Z" fill="url(#paint22_linear)"/>
</g>
<path d="M401.311 122.838C400.402 122.915 399.537 123.258 398.824 123.825C398.112 124.392 397.584 125.157 397.308 126.023C397.031 126.889 397.019 127.818 397.272 128.691C397.525 129.564 398.032 130.343 398.73 130.928C399.427 131.514 400.283 131.88 401.189 131.981C402.095 132.082 403.011 131.913 403.82 131.495C404.63 131.076 405.297 130.428 405.737 129.632C406.177 128.836 406.37 127.928 406.292 127.023C406.186 125.81 405.603 124.689 404.669 123.905C403.735 123.12 402.528 122.737 401.311 122.838Z" fill="white"/>
<path d="M406.194 115.63L395.3 116.563C393.734 116.694 392.285 117.438 391.269 118.633C390.253 119.828 389.754 121.375 389.881 122.936L390.817 133.794C390.953 135.355 391.705 136.798 392.908 137.808C394.111 138.817 395.666 139.31 397.232 139.179L408.126 138.246C409.693 138.108 411.141 137.358 412.154 136.158C413.166 134.959 413.661 133.408 413.529 131.846L412.593 120.988C412.451 119.434 411.699 118 410.5 116.996C409.301 115.992 407.754 115.502 406.194 115.63ZM402.258 133.57C401.037 133.674 399.812 133.416 398.738 132.826C397.665 132.237 396.791 131.344 396.227 130.26C395.663 129.175 395.434 127.949 395.569 126.735C395.704 125.521 396.198 124.374 396.987 123.439C397.776 122.505 398.825 121.824 400.002 121.484C401.179 121.144 402.431 121.16 403.599 121.529C404.768 121.897 405.8 122.603 406.566 123.557C407.331 124.511 407.796 125.669 407.901 126.886C408.039 128.521 407.52 130.144 406.457 131.398C405.395 132.651 403.876 133.432 402.236 133.57H402.258ZM408.312 121.054C408.051 121.083 407.788 121.033 407.556 120.911C407.324 120.79 407.134 120.602 407.01 120.372C406.886 120.141 406.834 119.879 406.86 119.619C406.887 119.359 406.991 119.113 407.159 118.913C407.327 118.712 407.552 118.566 407.803 118.494C408.055 118.422 408.323 118.426 408.573 118.507C408.822 118.587 409.042 118.74 409.203 118.946C409.364 119.152 409.46 119.402 409.478 119.662C409.502 120.003 409.391 120.34 409.169 120.6C408.947 120.86 408.632 121.023 408.29 121.054H408.312Z" fill="white"/>
<path d="M409.786 109.842L390.736 111.478C389.77 111.564 388.83 111.838 387.97 112.285C387.11 112.732 386.346 113.344 385.724 114.085C385.101 114.826 384.631 115.682 384.34 116.605C384.05 117.527 383.944 118.498 384.03 119.461L385.672 138.306C385.837 140.251 386.769 142.051 388.265 143.312C389.76 144.572 391.696 145.189 393.648 145.028L412.698 143.391C413.663 143.306 414.603 143.032 415.462 142.585C416.321 142.138 417.084 141.527 417.706 140.786C418.328 140.045 418.798 139.19 419.088 138.268C419.378 137.346 419.484 136.376 419.398 135.414L417.756 116.563C417.676 115.6 417.406 114.662 416.962 113.803C416.518 112.944 415.909 112.18 415.168 111.556C414.428 110.932 413.572 110.459 412.648 110.165C411.725 109.871 410.752 109.761 409.786 109.842ZM415.117 131.748C415.283 133.727 414.654 135.691 413.37 137.21C412.085 138.728 410.249 139.678 408.264 139.85L397.37 140.783C396.385 140.867 395.394 140.758 394.451 140.46C393.509 140.163 392.634 139.683 391.878 139.049C391.122 138.415 390.498 137.638 390.043 136.763C389.588 135.889 389.31 134.934 389.225 133.952L388.289 123.094C388.12 121.113 388.747 119.146 390.032 117.625C391.317 116.104 393.155 115.153 395.142 114.981L406.03 114.048C408.018 113.879 409.991 114.503 411.517 115.782C413.043 117.062 413.998 118.893 414.17 120.874L415.117 131.748Z" fill="white"/>
<g style="mix-blend-mode:multiply" opacity="0.3">
<path style="mix-blend-mode:multiply" opacity="0.3" d="M390.751 147.843C395.021 139.795 390.708 132.086 396.488 126.897C402.411 121.578 410.173 126.684 418.647 122.341C421.932 120.65 425.632 117.376 428.386 110.578C433.192 115.363 436.049 121.365 436.049 127.863C436.049 143.598 419.386 155.809 399.373 155.143C395.05 155.012 390.769 154.259 386.662 152.906C388.331 151.488 389.718 149.771 390.751 147.843Z" fill="url(#paint23_linear)"/>
</g>
<path d="M269.714 73.75C269.714 71.4438 270.361 69.1837 271.584 67.2255C272.806 65.2673 274.554 63.6895 276.629 62.6707C278.705 61.6518 281.026 61.2328 283.328 61.461C285.63 61.6892 287.823 62.5555 289.656 63.9618L286.777 67.6883C285.439 66.6569 283.794 66.1001 282.102 66.106C280.689 66.1074 279.304 66.4981 278.099 67.2352C276.895 67.9722 275.919 69.0268 275.278 70.2823C274.638 71.5379 274.358 72.9455 274.47 74.3496C274.582 75.7537 275.081 77.0997 275.913 78.2386C276.744 79.3776 277.875 80.2652 279.181 80.8034C280.487 81.3416 281.917 81.5094 283.313 81.2882C284.708 81.067 286.016 80.4656 287.09 79.5502C288.164 78.6349 288.963 77.4413 289.399 76.1015H282.102V71.3984H294.523V73.75C294.558 75.3936 294.263 77.0276 293.656 78.5562C293.048 80.0847 292.141 81.4772 290.987 82.6518C289.833 83.8264 288.456 84.7597 286.935 85.3968C285.415 86.0339 283.782 86.362 282.132 86.362C280.483 86.362 278.85 86.0339 277.329 85.3968C275.809 84.7597 274.431 83.8264 273.277 82.6518C272.123 81.4772 271.216 80.0847 270.609 78.5562C270.002 77.0276 269.707 75.3936 269.742 73.75H269.714Z" fill="white"/>
<g style="mix-blend-mode:multiply" opacity="0.3">
<path style="mix-blend-mode:multiply" opacity="0.3" d="M275.762 88.2029C278.745 82.5123 275.729 76.9198 279.763 73.3188C283.798 69.7179 289.255 73.4334 295.091 70.5254C297.352 69.396 299.87 67.1535 301.742 62.4122C305.026 65.8986 306.959 70.1925 306.959 74.7702C306.959 85.8568 295.605 94.2537 281.778 93.5444C278.749 93.3918 275.759 92.7962 272.904 91.7766C274.075 90.7763 275.045 89.5636 275.762 88.2029Z" fill="black" fill-opacity="0.5"/>
</g>
</g>
<defs>
<filter id="filter0_d" x="235.071" y="199.781" width="140.282" height="214.84" filterUnits="userSpaceOnUse" color-interpolation-filters="sRGB">
<feFlood flood-opacity="0" result="BackgroundImageFix"/>
<feColorMatrix in="SourceAlpha" type="matrix" values="0 0 0 0 0 0 0 0 0 0 0 0 0 0 0 0 0 0 127 0"/>
<feOffset dy="4"/>
<feGaussianBlur stdDeviation="10"/>
<feColorMatrix type="matrix" values="0 0 0 0 0 0 0 0 0 0 0 0 0 0 0 0 0 0 0.1 0"/>
<feBlend mode="normal" in2="BackgroundImageFix" result="effect1_dropShadow"/>
<feBlend mode="normal" in="SourceGraphic" in2="effect1_dropShadow" result="shape"/>
</filter>
<filter id="filter1_d" x="232.854" y="287.817" width="159.282" height="133.799" filterUnits="userSpaceOnUse" color-interpolation-filters="sRGB">
<feFlood flood-opacity="0" result="BackgroundImageFix"/>
<feColorMatrix in="SourceAlpha" type="matrix" values="0 0 0 0 0 0 0 0 0 0 0 0 0 0 0 0 0 0 127 0"/>
<feOffset dy="4"/>
<feGaussianBlur stdDeviation="10"/>
<feColorMatrix type="matrix" values="0 0 0 0 0 0 0 0 0 0 0 0 0 0 0 0 0 0 0.1 0"/>
<feBlend mode="normal" in2="BackgroundImageFix" result="effect1_dropShadow"/>
<feBlend mode="normal" in="SourceGraphic" in2="effect1_dropShadow" result="shape"/>
</filter>
<filter id="filter2_d" x="158.44" y="296.636" width="89.4327" height="237.335" filterUnits="userSpaceOnUse" color-interpolation-filters="sRGB">
<feFlood flood-opacity="0" result="BackgroundImageFix"/>
<feColorMatrix in="SourceAlpha" type="matrix" values="0 0 0 0 0 0 0 0 0 0 0 0 0 0 0 0 0 0 127 0"/>
<feOffset dy="4"/>
<feGaussianBlur stdDeviation="10"/>
<feColorMatrix type="matrix" values="0 0 0 0 0 0 0 0 0 0 0 0 0 0 0 0 0 0 0.1 0"/>
<feBlend mode="normal" in2="BackgroundImageFix" result="effect1_dropShadow"/>
<feBlend mode="normal" in="SourceGraphic" in2="effect1_dropShadow" result="shape"/>
</filter>
<filter id="filter3_d" x="100.109" y="296.634" width="111.452" height="235.564" filterUnits="userSpaceOnUse" color-interpolation-filters="sRGB">
<feFlood flood-opacity="0" result="BackgroundImageFix"/>
<feColorMatrix in="SourceAlpha" type="matrix" values="0 0 0 0 0 0 0 0 0 0 0 0 0 0 0 0 0 0 127 0"/>
<feOffset dy="4"/>
<feGaussianBlur stdDeviation="10"/>
<feColorMatrix type="matrix" values="0 0 0 0 0 0 0 0 0 0 0 0 0 0 0 0 0 0 0.1 0"/>
<feBlend mode="normal" in2="BackgroundImageFix" result="effect1_dropShadow"/>
<feBlend mode="normal" in="SourceGraphic" in2="effect1_dropShadow" result="shape"/>
</filter>
<filter id="filter4_d" x="23.5088" y="149.155" width="308.995" height="222.609" filterUnits="userSpaceOnUse" color-interpolation-filters="sRGB">
<feFlood flood-opacity="0" result="BackgroundImageFix"/>
<feColorMatrix in="SourceAlpha" type="matrix" values="0 0 0 0 0 0 0 0 0 0 0 0 0 0 0 0 0 0 127 0"/>
<feOffset dy="4"/>
<feGaussianBlur stdDeviation="10"/>
<feColorMatrix type="matrix" values="0 0 0 0 0 0 0 0 0 0 0 0 0 0 0 0 0 0 0.1 0"/>
<feBlend mode="normal" in2="BackgroundImageFix" result="effect1_dropShadow"/>
<feBlend mode="normal" in="SourceGraphic" in2="effect1_dropShadow" result="shape"/>
</filter>
<linearGradient id="paint0_linear" x1="347.129" y1="191.322" x2="285.889" y2="211.788" gradientUnits="userSpaceOnUse">
<stop stop-color="#0093E9"/>
<stop offset="1" stop-color="#80D0C7"/>
</linearGradient>
<linearGradient id="paint1_linear" x1="388.311" y1="288.934" x2="280.083" y2="299.927" gradientUnits="userSpaceOnUse">
<stop stop-color="#0093E9"/>
<stop offset="1" stop-color="#80D0C7"/>
</linearGradient>
<linearGradient id="paint2_linear" x1="355.411" y1="30.7017" x2="401.676" y2="116.8" gradientUnits="userSpaceOnUse">
<stop stop-color="#FF9085"/>
<stop offset="1" stop-color="#FB6FBB"/>
</linearGradient>
<linearGradient id="paint3_linear" x1="355.411" y1="30.7017" x2="401.676" y2="116.8" gradientUnits="userSpaceOnUse">
<stop stop-color="#0085FF"/>
<stop offset="1" stop-color="#FB6FBB"/>
</linearGradient>
<linearGradient id="paint4_linear" x1="353.959" y1="183.525" x2="375.179" y2="207.885" gradientUnits="userSpaceOnUse">
<stop stop-color="#FFC444"/>
<stop offset="1" stop-color="#F36F56"/>
</linearGradient>
<linearGradient id="paint5_linear" x1="372.752" y1="162.413" x2="372.752" y2="232.579" gradientUnits="userSpaceOnUse">
<stop stop-color="#F44336"/>
<stop offset="1" stop-color="#F44336" stop-opacity="0"/>
</linearGradient>
<linearGradient id="paint6_linear" x1="158339" y1="19298" x2="155426" y2="25479.3" gradientUnits="userSpaceOnUse">
<stop stop-color="#FFC444"/>
<stop offset="1" stop-color="#F36F56"/>
</linearGradient>
<linearGradient id="paint7_linear" x1="375.698" y1="125.964" x2="429.573" y2="128.858" gradientUnits="userSpaceOnUse">
<stop stop-color="#AA80F9"/>
<stop offset="1" stop-color="#6165D7"/>
</linearGradient>
<linearGradient id="paint8_linear" x1="357.845" y1="168.281" x2="473.548" y2="57.3126" gradientUnits="userSpaceOnUse">
<stop stop-color="#4158D0"/>
<stop offset="0.354557" stop-color="#C850C0"/>
<stop offset="0.666445" stop-color="#FFCC70"/>
</linearGradient>
<linearGradient id="paint9_linear" x1="9.96564" y1="355.123" x2="281.464" y2="218.599" gradientUnits="userSpaceOnUse">
<stop stop-color="#F4D03F"/>
<stop offset="1" stop-color="#16A085"/>
</linearGradient>
<linearGradient id="paint10_linear" x1="272.499" y1="335" x2="-25.4551" y2="198.352" gradientUnits="userSpaceOnUse">
<stop stop-color="#F4D03F"/>
<stop offset="1" stop-color="#16A085"/>
</linearGradient>
<linearGradient id="paint11_linear" x1="1.37449" y1="407.157" x2="34.3188" y2="281.471" gradientUnits="userSpaceOnUse">
<stop stop-color="#F4D03F"/>
<stop offset="1" stop-color="#16A085"/>
</linearGradient>
<linearGradient id="paint12_linear" x1="393.5" y1="394" x2="357.155" y2="508.553" gradientUnits="userSpaceOnUse">
<stop stop-color="#F4D03F"/>
<stop offset="1" stop-color="#16A085"/>
</linearGradient>
<linearGradient id="paint13_linear" x1="282.107" y1="53.9287" x2="282.107" y2="93.5972" gradientUnits="userSpaceOnUse">
<stop stop-color="#FBAB7E"/>
<stop offset="1" stop-color="#F7CE68"/>
</linearGradient>
<linearGradient id="paint14_linear" x1="192.64" y1="416.922" x2="150.517" y2="443.008" gradientUnits="userSpaceOnUse">
<stop stop-color="#0093E9"/>
<stop offset="1" stop-color="#80D0C7"/>
</linearGradient>
<linearGradient id="paint15_linear" x1="16112.1" y1="208417" x2="-7405.87" y2="194950" gradientUnits="userSpaceOnUse">
<stop stop-color="#444B8C"/>
<stop offset="1" stop-color="#3E4177"/>
</linearGradient>
<linearGradient id="paint16_linear" x1="148.573" y1="426.079" x2="98.1813" y2="435.883" gradientUnits="userSpaceOnUse">
<stop stop-color="#0093E9"/>
<stop offset="1" stop-color="#80D0C7"/>
</linearGradient>
<linearGradient id="paint17_linear" x1="43487.3" y1="243463" x2="23606.5" y2="211284" gradientUnits="userSpaceOnUse">
<stop stop-color="#444B8C"/>
<stop offset="1" stop-color="#3E4177"/>
</linearGradient>
<linearGradient id="paint18_linear" x1="309.843" y1="149.356" x2="345.424" y2="142.551" gradientUnits="userSpaceOnUse">
<stop stop-color="#F4D03F"/>
<stop offset="1" stop-color="#16A085"/>
</linearGradient>
<linearGradient id="paint19_linear" x1="235.775" y1="155.433" x2="321.956" y2="107.708" gradientUnits="userSpaceOnUse">
<stop stop-color="#F4D03F"/>
<stop offset="1" stop-color="#16A085"/>
</linearGradient>
<linearGradient id="paint20_linear" x1="266.356" y1="93.8555" x2="-49.486" y2="197.461" gradientUnits="userSpaceOnUse">
<stop stop-color="#0093E9"/>
<stop offset="1" stop-color="#80D0C7"/>
</linearGradient>
<linearGradient id="paint21_linear" x1="65.5" y1="305.5" x2="364.824" y2="155.67" gradientUnits="userSpaceOnUse">
<stop stop-color="#F4D03F"/>
<stop offset="1" stop-color="#16A085"/>
</linearGradient>
<linearGradient id="paint22_linear" x1="175275" y1="8680.92" x2="171534" y2="16415.5" gradientUnits="userSpaceOnUse">
<stop stop-color="#FF9085"/>
<stop offset="1" stop-color="#FB6FBB"/>
</linearGradient>
<linearGradient id="paint23_linear" x1="186709" y1="14561.2" x2="183228" y2="22299" gradientUnits="userSpaceOnUse">
<stop stop-color="#E38DDD"/>
<stop offset="1" stop-color="#9571F6"/>
</linearGradient>
<clipPath id="clip0">
<rect width="445" height="530" fill="white" transform="translate(0 0.687988)"/>
</clipPath>
</defs>
</svg>
