<?xml version="1.0" encoding="utf-8"?>
<svg width="444" height="436" viewBox="0 0 444 436" fill="none" xmlns="http://www.w3.org/2000/svg">
<g clip-path="url(#clip0)">
<path d="M421.737 207.036C428.858 242.732 443.29 315.084 408.753 363.491C346.079 451.334 132.932 445.138 42.8981 334.411C35.1176 324.815 -3.93553 274.865 0.323598 206.471C7.72956 87.8425 141.104 -17.3088 248.001 3.34341C310.569 15.4283 352.149 68.3032 369.291 90.0739C376.323 99.0439 408.635 141.338 421.737 207.036Z" fill="#F4F7FA"/>
<g filter="url(#filter0_d)">
<path d="M291.55 387.304C297.201 372.205 303.176 349.276 298.257 323.474C291.807 289.618 272.295 280.542 248.774 229.445C233.907 197.144 223.851 174.445 234.046 154.615C242.034 139.069 261.49 127.152 278.136 129.685C291.964 131.788 305.451 144.13 312.65 154.14C318.519 162.299 320.514 169.34 327.948 171.476C335.544 173.674 339.854 168.177 346.5 169.301C359.97 171.588 365.973 198.235 366.946 202.541C377.739 250.456 352.564 298.801 341.324 319.755C328.006 344.511 311.248 367.253 291.55 387.304Z" fill="url(#paint0_linear)"/>
</g>
<g style="mix-blend-mode:soft-light" opacity="0.5">
<g style="mix-blend-mode:soft-light" opacity="0.5">
<path d="M283.466 401.206L282.65 400.445C297.501 384.463 309.143 368.402 317.248 352.715C329.193 329.591 333.033 307.955 328.701 288.343C325.291 272.998 317.103 259.392 305.784 240.563C296.729 225.536 288.96 215.699 282.108 207.009C273.164 195.657 266.06 186.692 260.37 171.42C254.602 155.918 252.227 138.85 253.311 120.692L254.429 120.754C253.356 138.761 255.709 155.678 261.427 171.028C267.05 186.127 274.087 195.042 282.985 206.316C289.866 215.017 297.657 224.887 306.746 239.975C317.706 258.184 326.37 272.562 329.813 288.069C334.218 307.927 330.333 329.838 318.265 353.202C310.116 369.006 298.378 385.128 283.466 401.206Z" fill="white"/>
</g>
<g style="mix-blend-mode:soft-light" opacity="0.5">
<path d="M298.249 229.837C288.847 229.664 279.537 227.953 270.688 224.77C256.155 219.608 236.034 208.038 222.496 182.202L223.485 181.682C236.827 207.177 256.698 218.591 270.995 223.696C279.843 226.9 289.165 228.602 298.573 228.729C293.174 196.11 299.613 170.827 306.002 155.286C312.972 138.342 321.406 129.042 321.49 128.947L322.312 129.707C322.228 129.797 313.928 138.985 307.013 155.762C300.653 171.241 294.242 196.54 299.803 229.154L299.909 229.775H299.278C299.278 229.775 298.903 229.837 298.249 229.837Z" fill="white"/>
</g>
<g style="mix-blend-mode:soft-light" opacity="0.5">
<path d="M323.156 271.119L322.798 270.923C322.625 270.822 304.912 260.891 285.181 254.409C265.585 247.972 232.423 258.749 232.082 258.883L231.73 257.82C232.065 257.709 265.568 246.826 285.517 253.375C303.789 259.381 320.356 268.334 322.966 269.777C350.471 243.761 347.61 150.695 347.559 149.755L348.677 149.716C349.041 166.624 348.399 183.539 346.754 200.371C343.116 236.234 335.263 259.957 323.407 270.873L323.156 271.119Z" fill="white"/>
</g>
<g style="mix-blend-mode:soft-light" opacity="0.5">
<path d="M321.294 346.972L321.367 345.854C322.546 327.349 313.866 312.815 295.572 302.648C281.878 295.042 267.664 292.901 267.519 292.878L267.681 291.76C267.826 291.76 282.241 293.958 296.114 301.664C314.185 311.73 323.301 326.594 322.541 344.786C333.49 337.043 343.708 328.312 353.064 318.703C368.514 302.972 389.049 277.449 399.166 245.204L418.824 182.571L419.891 182.906L400.233 245.54C390.049 278.008 369.38 303.699 353.841 319.509C337.006 336.649 322.373 346.251 322.228 346.351L321.294 346.972Z" fill="white"/>
</g>
</g>
<g filter="url(#filter1_d)">
<path d="M293.941 383.07C319.373 382.992 351.764 379.262 382.673 364.901C390.56 361.238 439.294 338.617 433.291 316.349C431.178 308.52 424.057 307.34 421.05 296.91C417.484 284.551 425.197 278.288 430.435 262.798C433.559 253.554 442.731 226.493 426.405 211.718C416.668 202.893 398.284 198.856 384.356 202.25C363.926 207.238 357.085 227.248 346.091 261.31C336.348 291.508 338.998 298.868 331.603 320.487C326.114 336.52 315.707 358.643 293.941 383.07Z" fill="url(#paint1_linear)"/>
</g>
<g style="mix-blend-mode:soft-light" opacity="0.5">
<g style="mix-blend-mode:soft-light" opacity="0.5">
<path d="M228.613 397.566C213.913 397.504 199.28 395.597 185.055 391.889L185.334 390.81C213.242 397.946 240.334 398.304 265.855 391.878C299.855 383.311 329.217 362.592 353.117 330.324C378.018 296.681 390.762 258.905 397.072 233.142C401.437 215.308 400.364 195.618 393.886 174.624L394.954 174.294C401.493 195.484 402.572 215.375 398.156 233.405C391.824 259.269 379.029 297.196 354 330.99C329.966 363.498 300.37 384.362 266.112 392.991C253.849 396.056 241.253 397.593 228.613 397.566Z" fill="white"/>
</g>
<g style="mix-blend-mode:soft-light" opacity="0.5">
<path d="M380.354 284.563L380.035 284.171C374.715 277.269 370.28 269.728 366.833 261.724C361.378 249.236 355.95 230.021 361.143 209.559L362.227 209.833C357.13 229.965 362.468 248.912 367.817 261.248C371.179 269 375.456 276.322 380.555 283.058C434.096 247.441 433.162 207.345 431.592 195.881C431.562 195.695 431.542 195.509 431.53 195.321H432.089H432.648C432.648 195.388 432.648 195.534 432.699 195.757C434.297 207.417 435.258 248.252 380.717 284.3L380.354 284.563Z" fill="white"/>
</g>
<g style="mix-blend-mode:soft-light" opacity="0.5">
<path d="M373.329 332.002C366.83 331.985 360.341 331.526 353.905 330.626L353.609 330.587L353.481 330.319C353.33 330.011 338.49 298.929 341.257 256.445L344.051 213.619L345.169 213.692L342.374 256.518C339.764 296.597 352.927 326.421 354.364 329.558C372.591 332.019 398.822 332.198 420.878 319.291C434.136 311.534 439.669 302.592 439.725 302.514L440.681 303.073C440.457 303.448 434.985 312.306 421.504 320.208C411.694 325.962 395.999 332.002 373.329 332.002Z" fill="white"/>
</g>
</g>
<g filter="url(#filter2_d)">
<path d="M308.903 394.523C308.835 391.934 308.685 376.695 319.902 367.356C329.287 359.527 341.545 360.086 344.378 360.237C355.809 360.796 358.643 366.064 365.674 363.654C374.019 360.791 374.617 351.748 381.274 351.535C385.874 351.39 390.463 355.534 391.894 359.818C394.365 367.334 387.607 377.07 379.743 380.912C368.905 386.208 361.801 377.472 349.001 382.83C341.556 385.945 341.701 389.842 333.91 393.315C324.827 397.347 315.47 396.184 308.903 394.523Z" fill="url(#paint2_linear)"/>
</g>
<g style="mix-blend-mode:soft-light" opacity="0.5">
<g style="mix-blend-mode:soft-light" opacity="0.5">
<path d="M305.349 400.261L304.902 399.92C308.771 394.872 312.939 390.062 317.383 385.514C326.276 376.416 330.742 371.852 336.181 369.94C343.262 367.457 348.779 369.459 354.111 371.399C358.835 373.116 363.295 374.755 368.644 373.29C377.117 370.991 383.931 361.697 388.894 345.669L389.453 345.837C384.423 362.055 377.481 371.478 368.812 373.832C363.312 375.325 358.751 373.676 353.961 371.925C348.718 370.018 343.296 368.05 336.404 370.471C331.089 372.339 326.656 376.869 317.825 385.9C313.381 390.432 309.215 395.227 305.349 400.261Z" fill="white"/>
</g>
<g style="mix-blend-mode:soft-light" opacity="0.5">
<path d="M379.158 374.995C378.236 374.995 377.409 374.945 376.671 374.872C372.674 374.464 370.522 373.195 370.455 373.161L370.377 373.116L370.338 373.027C366.8 364.225 372.54 351.541 372.574 351.413L373.082 351.648C373.021 351.771 367.426 364.152 370.791 372.725C371.691 373.2 380.013 377.199 393.797 370.879L394.026 371.388C387.878 374.235 382.814 374.995 379.158 374.995Z" fill="white"/>
</g>
<g style="mix-blend-mode:soft-light" opacity="0.5">
<path d="M363.714 388.517C360.036 378.065 336.432 370.549 336.192 370.471L335.951 370.398L336.002 370.152C336.756 366.316 340.999 363.66 348.623 362.262C352.301 361.62 356.028 361.297 359.762 361.294V361.854C359.555 361.854 338.651 361.647 336.611 370.018C340.802 371.413 344.892 373.094 348.852 375.051C357.482 379.352 362.663 383.82 364.25 388.333L363.714 388.517Z" fill="white"/>
</g>
<g style="mix-blend-mode:soft-light" opacity="0.5">
<path d="M348.299 392.527C341.91 377.596 318.854 384.927 318.619 385.005L318.306 385.106L318.256 384.776C316.176 370.572 328.942 357.693 329.071 357.564L329.462 357.961C329.339 358.084 316.959 370.577 318.764 384.373C321.615 383.535 342.642 377.892 348.813 392.309L348.299 392.527Z" fill="white"/>
</g>
</g>
<path d="M444 393.416L15.8125 389.686V400.725C15.8125 403.723 17.6794 406.267 20.2114 406.72L141.317 428.463C142.75 428.72 144.21 428.787 145.66 428.664L439.344 403.879C441.971 403.656 444 401.083 444 398.024V393.416Z" fill="#689F38"/>
<path d="M306.16 375.521L20.5413 395.715C19.3562 395.821 18.162 395.678 17.0358 395.294C15.9096 394.91 14.8765 394.293 14.0031 393.485C13.1298 392.676 12.4356 391.694 11.9656 390.6C11.4955 389.507 11.2599 388.326 11.274 387.136V182.839C11.28 180.385 12.2593 178.034 13.9969 176.302C15.7345 174.569 18.0883 173.598 20.5413 173.601H306.16C310.374 173.601 313.778 177.342 313.778 181.95V366.635C313.778 371.243 310.374 375.219 306.16 375.521Z" fill="#689F38"/>
<path d="M318.607 181.95V366.635C318.607 371.249 315.063 375.225 310.849 375.521L258.359 379.229L25.057 395.72C23.8664 395.828 22.6664 395.687 21.5336 395.305C20.4007 394.923 19.36 394.308 18.4779 393.501C17.5958 392.694 16.8917 391.711 16.4106 390.616C15.9294 389.521 15.6818 388.338 15.6836 387.142V182.84C15.72 180.368 16.7208 178.009 18.4722 176.266C20.2237 174.523 22.5869 173.535 25.057 173.512H310.676C314.929 173.512 318.607 177.342 318.607 181.95Z" fill="url(#paint3_linear)"/>
<path d="M301.815 362.497L35.7594 380.04C34.7917 380.119 33.818 379.995 32.9007 379.677C31.9835 379.358 31.143 378.851 30.4331 378.188C29.7232 377.525 29.1596 376.721 28.7784 375.827C28.3971 374.934 28.2067 373.97 28.2193 372.999V194.136C28.2237 192.134 29.0188 190.216 30.4313 188.799C31.8438 187.381 33.759 186.58 35.7594 186.57L301.815 185.451C305.286 185.451 308.098 188.499 308.098 192.291V355.221C308.098 359.013 305.286 362.267 301.815 362.497Z" fill="url(#paint4_linear)"/>
<path d="M177.983 179.193C177.955 179.838 177.738 180.46 177.359 180.982C176.98 181.505 176.456 181.904 175.852 182.131C175.249 182.358 174.591 182.403 173.963 182.259C173.334 182.116 172.761 181.79 172.315 181.324C171.869 180.858 171.57 180.27 171.455 179.635C171.34 179 171.414 178.345 171.668 177.752C171.921 177.159 172.344 176.653 172.882 176.298C173.421 175.943 174.052 175.753 174.697 175.754C175.139 175.763 175.575 175.859 175.979 176.036C176.384 176.214 176.749 176.47 177.055 176.79C177.36 177.109 177.6 177.486 177.759 177.899C177.918 178.311 177.995 178.751 177.983 179.193Z" fill="white"/>
<path d="M303.589 374.604L15.8125 395.854L141.317 418.391C142.75 418.648 144.21 418.716 145.66 418.592L444.028 393.427L308.205 374.76C306.676 374.543 305.129 374.491 303.589 374.604Z" fill="url(#paint5_linear)"/>
<g style="mix-blend-mode:multiply" opacity="0.3">
<path d="M57.8008 396.397L297.385 378.435L371.534 388.545L134.012 407.744L57.8008 396.397Z" fill="url(#paint6_linear)"/>
</g>
<path opacity="0.7" d="M308.132 220.05L28.2031 223.512V191.888C28.2076 190.187 28.8863 188.557 30.0904 187.357C31.2945 186.156 32.9255 185.483 34.6253 185.484H301.732C302.575 185.484 303.41 185.649 304.189 185.971C304.968 186.294 305.676 186.767 306.273 187.363C306.869 187.959 307.342 188.667 307.665 189.446C307.988 190.225 308.154 191.061 308.154 191.904L308.132 220.05Z" fill="white"/>
<g opacity="0.5">
<path opacity="0.5" d="M203.698 304.812L45.4336 311.355V236.559L203.698 233.902V304.812Z" fill="white"/>
<path opacity="0.5" d="M293.748 301.094L213.031 304.427V233.746L293.748 232.393V301.094Z" fill="white"/>
<path opacity="0.5" d="M293.749 352.084L45.4336 366.875V321.125L293.749 310.064V352.084Z" fill="white"/>
</g>
<path d="M48.2743 203.145C48.2743 205.102 46.5416 206.702 44.4009 206.713C42.2601 206.724 40.4883 205.153 40.4883 203.195C40.4883 201.238 42.2266 199.633 44.4009 199.627C46.5751 199.622 48.2743 201.193 48.2743 203.145Z" fill="url(#paint7_linear)"/>
<path d="M62.2887 203.067C62.2887 205.013 60.5671 206.601 58.4488 206.618C57.9655 206.642 57.4822 206.57 57.0267 206.407C56.5713 206.243 56.1525 205.991 55.7947 205.665C55.4368 205.34 55.1468 204.946 54.9414 204.508C54.736 204.07 54.6192 203.595 54.5977 203.111C54.5977 201.16 56.3248 199.571 58.4488 199.56C58.9311 199.538 59.4132 199.61 59.8674 199.775C60.3216 199.939 60.7389 200.191 61.0956 200.516C61.4523 200.842 61.7413 201.235 61.946 201.673C62.1507 202.11 62.2672 202.584 62.2887 203.067Z" fill="url(#paint8_linear)"/>
<path d="M76.1674 202.983C76.1267 203.954 75.7049 204.871 74.9935 205.534C74.282 206.196 73.3382 206.552 72.3667 206.523C71.8866 206.545 71.4069 206.473 70.955 206.309C70.5032 206.145 70.0881 205.894 69.7338 205.569C69.3795 205.244 69.093 204.852 68.8906 204.416C68.6882 203.98 68.5741 203.508 68.5547 203.028C68.5969 202.055 69.0208 201.138 69.7346 200.476C70.4483 199.815 71.3941 199.461 72.3667 199.493C72.8453 199.472 73.3235 199.546 73.7737 199.71C74.2239 199.874 74.6373 200.125 74.9903 200.449C75.3434 200.774 75.629 201.164 75.831 201.599C76.033 202.034 76.1473 202.504 76.1674 202.983Z" fill="url(#paint9_linear)"/>
<g style="mix-blend-mode:soft-light" opacity="0.48">
<path d="M258.291 379.228L25.0001 395.72C23.8113 395.828 22.6132 395.685 21.4824 395.303C20.3517 394.92 19.3134 394.305 18.4341 393.497C17.5548 392.69 16.8538 391.707 16.3761 390.613C15.8985 389.518 15.6546 388.336 15.6603 387.141V205.756C16.7781 206.791 17.7675 207.77 18.8965 208.687C36.3522 222.824 56.1611 209.184 74.4943 223.92C89.5857 236.072 80.8495 249.242 98.389 266.164C112.268 279.546 121.266 274.552 135.072 289.422C147.537 302.844 142.568 309.554 152.701 318.502C169.408 333.322 186.724 318.301 208.741 330.156C226.398 339.663 223.558 353.912 239.93 368.368C245.312 373.113 251.541 376.798 258.291 379.228Z" fill="url(#paint10_linear)"/>
</g>
<path d="M132.69 49.1675C132.723 49.982 132.714 50.7977 132.663 51.6113C132.623 51.9524 132.629 52.2992 132.579 52.6347C132.472 53.3114 132.361 53.9824 132.193 54.6423C132.109 54.9723 132.031 55.3022 131.936 55.6266C131.869 55.8391 131.807 56.0572 131.74 56.2753C129.938 61.4026 126.559 65.827 122.087 68.9138L121.797 69.1207C120.2 70.2321 118.505 71.1943 116.733 71.9951L116.392 72.1405C115.598 72.4928 114.782 72.8116 113.949 73.108C113.597 73.231 113.234 73.3484 112.87 73.4603L112.138 73.684C111.775 73.7902 111.4 73.8853 111.02 73.9804L110.271 74.1649C107.022 74.9088 103.686 75.2079 100.356 75.0541L99.5956 75.0149H99.3776H99.3161C99.1596 75.0149 98.9975 75.0149 98.841 74.9814H98.6007L98.0809 74.9311L97.8573 74.9031L97.2984 74.8416H97.1083L96.5494 74.7633L96.4097 74.7353L95.7836 74.6403C95.7557 74.6403 95.7222 74.3998 95.6998 74.3942C95.465 74.3551 95.2303 74.0363 95.0011 74.0363C93.0448 74.0363 91.1612 73.3652 89.367 72.6997V72.8116C88.8081 72.6047 88.2491 72.4369 87.6902 72.202C87.1312 71.9672 86.7344 71.805 86.2705 71.5813C86.0413 71.7603 85.7786 71.9616 85.488 72.1685C81.8733 70.6378 78.5795 68.4389 75.7792 65.687C76.099 65.2616 76.3957 64.8191 76.6679 64.3617C72.8112 59.9606 70.5195 54.5584 70.5195 48.7984C70.5195 34.9911 83.5372 23.3983 100.294 22.895C100.853 22.895 101.194 22.895 101.731 22.895C118.158 23.1019 131.852 34.0124 132.411 48.0602V48.6977C132.478 48.8096 132.69 48.9885 132.69 49.1675Z" fill="url(#paint11_linear)"/>
<path d="M130.663 49.0723C130.663 63.8247 116.404 75.2105 99.323 74.9924C98.9317 74.9924 98.5293 74.9924 98.1325 74.9645C97.7356 74.9365 97.4058 74.9253 97.0481 74.8974L95.9302 74.8023C95.8576 74.8023 95.7849 74.8023 95.7122 74.7743C95.4775 74.7743 95.2427 74.7296 95.0136 74.6961L94.3261 74.601C93.9963 74.5562 93.6665 74.5003 93.3423 74.4444L92.7834 74.3381C90.8666 73.97 88.9839 73.4425 87.1549 72.7611C86.5959 72.5598 86.0649 72.3417 85.5339 72.1124C81.9201 70.5801 78.6266 68.3814 75.8251 65.631C71.1524 61.0006 68.3633 55.0448 68.3633 48.6417C68.3633 34.8288 81.3754 23.236 98.138 22.7327C99.4261 22.6932 100.715 22.7211 102 22.8166C115.627 23.8008 126.991 32.1613 129.947 43.3514C130.02 43.631 130.093 43.9106 130.154 44.2014C130.154 44.2909 130.193 44.386 130.216 44.481C130.26 44.7047 130.311 44.934 130.35 45.1577C130.406 45.4988 130.462 45.8344 130.506 46.1755C130.506 46.2985 130.54 46.4327 130.551 46.5614C130.562 46.69 130.59 46.8801 130.601 47.0423C130.612 47.2045 130.635 47.4002 130.64 47.6015V47.7637C130.64 47.9706 130.64 48.1775 130.668 48.3844C130.696 48.5913 130.663 48.843 130.663 49.0723Z" fill="url(#paint12_linear)"/>
<path d="M130.663 49.0723C130.663 63.8247 116.404 75.2105 99.323 74.9924C98.9317 74.9924 98.5293 74.9924 98.1325 74.9645C97.7356 74.9365 97.4058 74.9253 97.0481 74.8974L95.9302 74.8023C95.8576 74.8023 95.7849 74.8023 95.7122 74.7743C95.4775 74.7743 95.2427 74.7296 95.0136 74.6961L94.3261 74.601C93.9963 74.5562 93.6665 74.5003 93.3423 74.4444L92.7834 74.3381C90.8666 73.97 88.9839 73.4425 87.1549 72.7611C86.5959 72.5598 86.0649 72.3417 85.5339 72.1124C81.9201 70.5801 78.6266 68.3814 75.8251 65.631C71.1524 61.0006 68.3633 55.0448 68.3633 48.6417C68.3633 34.8288 81.3754 23.236 98.138 22.7327C99.4261 22.6932 100.715 22.7211 102 22.8166C115.627 23.8008 126.991 32.1613 129.947 43.3514C130.02 43.631 130.093 43.9106 130.154 44.2014C130.154 44.2909 130.193 44.386 130.216 44.481C130.26 44.7047 130.311 44.934 130.35 45.1577C130.406 45.4988 130.462 45.8344 130.506 46.1755C130.506 46.2985 130.54 46.4327 130.551 46.5614C130.562 46.69 130.59 46.8801 130.601 47.0423C130.612 47.2045 130.635 47.4002 130.64 47.6015V47.7637C130.64 47.9706 130.64 48.1775 130.668 48.3844C130.696 48.5913 130.663 48.843 130.663 49.0723Z" fill="url(#paint13_linear)"/>
<path d="M178.445 109.139C178.445 109.25 178.445 109.368 178.473 109.48V109.759C178.473 109.894 178.473 110.033 178.473 110.168C178.473 110.302 178.473 110.319 178.473 110.391C178.473 110.604 178.473 110.822 178.473 111.034C178.474 111.969 178.414 112.903 178.294 113.83C178.081 115.425 177.693 116.991 177.137 118.5C177.059 118.718 176.975 118.931 176.891 119.143C176.543 120.001 176.147 120.84 175.706 121.654C174.674 123.528 173.422 125.272 171.978 126.849C171.654 127.207 171.313 127.56 170.966 127.906C170.62 128.253 170.262 128.594 169.893 128.924C168.387 130.289 166.759 131.513 165.031 132.581C164.813 132.716 164.589 132.855 164.365 132.984C163.913 133.252 163.46 133.51 162.99 133.761C161.33 134.654 159.608 135.426 157.837 136.071C157.323 136.255 156.803 136.434 156.272 136.602C155.741 136.77 155.21 136.932 154.673 137.083C154.137 137.234 153.589 137.374 153.036 137.503C149.919 138.231 146.734 138.619 143.534 138.66H141.857H141.549H141.018H140.705L140.186 138.632H139.884L139.325 138.593H139.04L138.481 138.543L138.224 138.515L137.665 138.448L137.452 138.42L136.81 138.336H136.664L135.926 138.224H135.882C134.345 137.968 132.825 137.626 131.326 137.201C118.767 133.599 109.98 124.277 109.98 113.215C109.98 98.8432 124.826 86.5067 143.517 85.6567C161.565 84.829 176.673 94.9622 178.311 108.697C178.311 108.786 178.311 108.876 178.339 108.965L178.445 109.139Z" fill="url(#paint14_linear)"/>
<path d="M107.82 113.07C107.82 127.448 122.353 138.896 140.625 138.638C159.327 138.375 174.809 126.017 174.809 111.035C174.809 96.0532 159.327 84.6338 140.625 85.5118C122.342 86.3618 107.82 98.6983 107.82 113.07Z" fill="url(#paint15_linear)"/>
<path d="M130.875 98.0942V123.528C130.875 125.161 132.256 126.179 133.452 125.429L154.731 112.058C156.061 111.225 156.061 108.865 154.731 108.11L133.446 96.0362C132.256 95.3595 130.875 96.4612 130.875 98.0942Z" fill="white"/>
<g style="mix-blend-mode:multiply" opacity="0.3">
<path style="mix-blend-mode:multiply" opacity="0.3" d="M132.535 132.023C136.548 124.121 132.491 116.924 137.918 111.706C143.468 106.377 150.734 110.951 158.627 106.466C161.695 104.721 165.127 101.433 167.681 94.8677C172.153 99.2464 174.808 104.85 174.808 111.035C174.808 126.017 159.325 138.375 140.623 138.638C136.59 138.71 132.57 138.176 128.695 137.056C130.266 135.622 131.567 133.917 132.535 132.023Z" fill="url(#paint16_linear)"/>
</g>
<path d="M179.083 66.6878H178.831L178.379 66.6542H178.127L177.674 66.6039H177.434L176.97 66.548H176.752L176.266 66.4808L176.081 66.4529L175.55 66.369H175.411L174.852 66.1453H174.779C173.248 65.8592 171.737 65.4725 170.257 64.9877C159.721 61.5205 152.371 53.4676 152.371 44.3243C152.371 32.4239 164.791 22.6878 180.514 22.5704C195.795 22.4585 208.651 31.4285 210.026 42.9877C210.026 43.0493 210.026 43.1164 210.026 43.1779C210.026 43.2394 210.026 43.368 210.054 43.4631C210.082 43.5581 210.054 43.642 210.082 43.7315V43.9776V44.3131C210.082 44.3746 210.082 44.4417 210.082 44.5032C210.082 44.6822 210.082 44.8611 210.082 45.0625C210.082 51.1357 206.924 56.5434 201.826 60.4524C201.496 60.704 201.161 60.9501 200.814 61.1906C200.468 61.431 200.116 61.6603 199.758 61.8896L199.199 62.2251C198.827 62.4414 198.454 62.6539 198.081 62.8626C197.696 63.064 197.31 63.2653 196.913 63.4554C196.516 63.6456 196.242 63.7742 195.896 63.9252C193.916 64.7929 191.857 65.4671 189.747 65.9384C189.328 66.0279 188.909 66.1174 188.484 66.1956C185.833 66.688 183.136 66.8905 180.441 66.7996L179.731 66.7661H179.508L179.083 66.6878Z" fill="url(#paint17_linear)"/>
<path d="M150.879 44.3077C150.879 56.2024 163.081 66.2517 178.519 66.7606C194.409 67.2807 207.634 57.5557 207.634 45.0235C207.634 32.4912 194.415 22.4363 178.519 22.5538C163.081 22.6712 150.879 32.4073 150.879 44.3077Z" fill="url(#paint18_linear)"/>
<path style="mix-blend-mode:multiply" d="M287.126 125.675C310.602 102.188 332.825 105.728 355.317 94.1963C367.334 113.769 367.435 138.129 353.64 155.566C335.469 178.494 300.099 180.731 274.634 160.554C272.57 158.93 270.606 157.182 268.754 155.32C272.108 145.656 276.864 135.954 287.126 125.675Z" fill="url(#paint19_linear)"/>
<g style="mix-blend-mode:color-burn" opacity="0.3">
<path style="mix-blend-mode:color-burn" opacity="0.3" d="M287.128 125.675C307.071 105.7 326.147 105.275 345.258 98.5024C355.279 114.233 355.531 134.069 344.341 148.195C329.809 166.516 301.588 168.3 281.253 152.183C278.35 149.886 275.703 147.283 273.355 144.421C276.917 137.477 281.566 131.148 287.128 125.675Z" fill="url(#paint20_linear)"/>
</g>
<path d="M293.908 220.157C293.908 220.157 330.48 261.299 299.285 327.405C298.62 328.807 297.595 330.008 296.316 330.887C295.037 331.765 293.548 332.289 292.001 332.406C290.454 332.523 288.904 332.229 287.507 331.553C286.11 330.877 284.917 329.843 284.048 328.557L259.729 292.649C257.801 289.802 256.49 286.583 255.88 283.199C255.27 279.814 255.374 276.34 256.185 272.998L264.603 238.326L293.908 220.157Z" fill="url(#paint21_linear)"/>
<path d="M212.217 155.348C212.217 155.348 163.818 129.131 106.661 174.624C105.45 175.592 104.516 176.864 103.954 178.31C103.392 179.755 103.222 181.324 103.461 182.857C103.699 184.389 104.339 185.831 105.314 187.037C106.289 188.243 107.566 189.17 109.014 189.723L149.515 205.197C152.726 206.425 156.158 206.968 159.59 206.789C163.023 206.611 166.38 205.716 169.447 204.162L201.306 188.034L212.217 155.348Z" fill="url(#paint22_linear)"/>
<path d="M297.542 215.565C297.542 215.565 334.119 256.708 302.924 322.808C302.259 324.211 301.235 325.412 299.956 326.291C298.677 327.17 297.189 327.695 295.642 327.813C294.095 327.93 292.544 327.636 291.147 326.961C289.75 326.285 288.557 325.252 287.687 323.966L263.368 288.058C261.44 285.211 260.128 281.992 259.516 278.608C258.903 275.224 259.005 271.749 259.813 268.407L268.231 233.735L297.542 215.565Z" fill="url(#paint23_linear)"/>
<g filter="url(#filter3_d)">
<path d="M215.827 150.812C215.827 150.812 167.434 124.596 110.243 170.089C109.034 171.059 108.102 172.331 107.541 173.776C106.981 175.222 106.812 176.79 107.051 178.322C107.29 179.854 107.93 181.296 108.904 182.501C109.879 183.707 111.155 184.634 112.602 185.188L153.103 200.662C156.314 201.89 159.746 202.432 163.178 202.254C166.611 202.076 169.968 201.181 173.035 199.627L204.894 183.499L215.827 150.812Z" fill="url(#paint24_linear)"/>
</g>
<g filter="url(#filter4_d)">
<path d="M254.059 47.2326C305.409 -4.62449 390.441 14.1208 390.491 14.2382C390.541 14.3557 428.275 92.8096 389.558 154.671C354.439 210.773 276.367 251.529 261.365 258.995C259.755 259.795 257.134 260.896 256.178 259.37C237.543 229.675 212.58 210.913 182.56 201.037C180.883 200.477 181.442 197.737 181.822 196.032C185.595 179.937 207.399 94.3307 254.059 47.2326Z" fill="url(#paint25_linear)"/>
</g>
<g style="mix-blend-mode:multiply" opacity="0.3">
<path d="M287.127 125.675C315.857 96.8918 342.798 108.703 370.555 83.6213C380.688 74.4668 391.795 59.6249 398.01 33.9844C406.607 61.2634 416.293 111.935 389.559 154.654C354.441 210.773 276.368 251.529 261.366 258.995C259.756 259.794 257.135 260.896 256.179 259.369C246.766 244.371 235.727 232.163 223.246 222.461C232.453 217.08 240.671 210.161 247.543 202.004C270.672 174.361 260.93 151.897 287.127 125.675Z" fill="url(#paint26_linear)"/>
</g>
<path d="M356.602 57.0079C336.832 41.3495 312.485 27.1396 290.703 22.677C331.841 5.2235 376.78 11.649 387.892 13.6958C388.703 13.844 389.465 14.1892 390.111 14.7011C390.757 15.2131 391.267 15.876 391.597 16.6317C396.13 26.9998 412.653 69.2885 405.074 113.378C397.276 95.2925 376.377 72.683 356.602 57.0079Z" fill="url(#paint27_linear)"/>
<path style="mix-blend-mode:multiply" opacity="0.3" d="M398.009 33.9844L398.127 34.3702C398.199 34.5883 398.266 34.8064 398.333 35.0245C398.401 35.2426 398.468 35.4663 398.54 35.69C398.613 35.9137 398.669 36.115 398.73 36.3275C398.792 36.54 398.876 36.8029 398.943 37.0433L399.127 37.6585C399.205 37.9101 399.278 38.1674 399.351 38.4246C399.423 38.6819 399.468 38.8217 399.524 39.023L399.759 39.8339C399.809 40.0296 399.865 40.2253 399.921 40.3931C399.999 40.6783 400.077 40.9523 400.161 41.2543L400.312 41.8135C400.396 42.1155 400.474 42.4175 400.558 42.7195C400.608 42.904 400.653 43.0886 400.703 43.2787C400.787 43.5919 400.871 43.9051 400.949 44.2182C401 44.3972 401.044 44.5817 401.089 44.7774L401.341 45.7673C401.385 45.9406 401.43 46.114 401.469 46.2874L401.721 47.3163C401.765 47.4841 401.805 47.6575 401.844 47.8252C401.933 48.1831 402.017 48.5354 402.101 48.8989C402.14 49.0611 402.179 49.2233 402.213 49.3911C402.302 49.7546 402.386 50.1292 402.47 50.5095C402.503 50.6717 402.542 50.8339 402.576 50.9905L402.827 52.1425L402.928 52.6122L403.18 53.7922C403.213 53.9432 403.247 54.0998 403.275 54.2507C403.358 54.6534 403.442 55.0616 403.52 55.4699C403.554 55.6153 403.582 55.7663 403.61 55.9172C403.694 56.3311 403.772 56.7505 403.85 57.1699L403.934 57.6005C404.012 58.0311 404.096 58.4561 404.169 58.8923C404.197 59.0321 404.225 59.1719 404.247 59.3118C404.325 59.7535 404.404 60.1953 404.476 60.6371C404.476 60.7713 404.527 60.9055 404.549 61.0398C404.622 61.4927 404.7 61.9457 404.772 62.4043C404.772 62.5329 404.812 62.6615 404.834 62.7901L405.052 64.1882C405.052 64.3112 405.091 64.4399 405.108 64.5629C405.181 65.0382 405.248 65.5136 405.315 65.9889C405.315 66.1119 405.348 66.235 405.371 66.358C405.438 66.8445 405.499 67.3255 405.566 67.812C405.566 67.9294 405.594 68.0469 405.611 68.1699C405.672 68.662 405.739 69.1541 405.795 69.6518C405.795 69.7693 405.823 69.8811 405.84 69.9986C405.896 70.5019 405.957 71.0052 406.013 71.5141L406.047 71.8384C406.103 72.3529 406.159 72.873 406.209 73.3875L406.242 73.7006C406.293 74.2263 406.343 74.752 406.388 75.2833C406.388 75.3783 406.388 75.479 406.388 75.5797C406.438 76.1389 406.483 76.6534 406.522 77.1902C406.522 77.2853 406.522 77.3748 406.522 77.4698L406.639 79.114V79.3768L406.74 81.0545C406.74 81.1384 406.74 81.2222 406.74 81.3061C406.74 81.8654 406.796 82.4246 406.818 82.9838C406.818 83.0565 406.818 83.1348 406.818 83.2075C406.818 83.7667 406.863 84.3651 406.88 84.9467C406.88 85.0138 406.88 85.0809 406.88 85.1536C406.88 85.7408 406.913 86.328 406.919 86.9208C406.919 86.9823 406.919 87.0438 406.919 87.1053C406.919 87.7037 406.919 88.3076 406.919 88.906V89.0626C406.919 89.6777 406.919 90.2929 406.919 90.9081C406.921 90.949 406.921 90.9901 406.919 91.0311C406.919 91.6574 406.919 92.2837 406.919 92.9157V93.0052C406.919 93.6483 406.885 94.2858 406.863 94.9345V94.9792C406.678 101.134 406.08 107.269 405.074 113.344C400.094 101.802 389.754 88.4083 377.781 76.1445C385.629 66.8893 393.236 53.602 398.009 33.9844Z" fill="url(#paint28_linear)"/>
<path d="M353.599 155.546C371.769 132.602 365.854 97.6372 340.388 77.4502C314.922 57.2632 279.549 59.4983 261.379 82.4426C243.21 105.387 249.125 140.352 274.59 160.539C300.056 180.726 335.43 178.491 353.599 155.546Z" fill="url(#paint29_linear)"/>
<path d="M349.754 152.498C366.409 131.466 360.989 99.4164 337.647 80.9134C314.306 62.4104 281.882 64.4604 265.227 85.4922C248.572 106.524 253.992 138.573 277.334 157.076C300.675 175.579 333.099 173.529 349.754 152.498Z" fill="url(#paint30_linear)"/>
<path d="M344.307 148.18C358.815 129.86 354.092 101.941 333.758 85.8223C313.425 69.7034 285.18 71.4882 270.671 89.8087C256.163 108.129 260.886 136.048 281.22 152.167C301.554 168.286 329.799 166.501 344.307 148.18Z" fill="url(#paint31_linear)"/>
<path d="M257.506 260.625C262.463 254.365 249.313 235.681 228.135 218.892C206.957 202.104 185.77 193.569 180.812 199.83C175.855 206.09 189.004 224.774 210.183 241.562C231.361 258.351 252.548 266.886 257.506 260.625Z" fill="#8BC34A"/>
<path d="M215.476 218.294L231.931 231.341C236.213 234.734 239.385 239.328 241.041 244.536C242.697 249.743 242.762 255.327 241.227 260.572L238.253 270.749C237.999 271.614 237.537 272.404 236.907 273.048C236.277 273.693 235.498 274.173 234.64 274.446C233.781 274.719 232.869 274.778 231.982 274.616C231.096 274.454 230.263 274.077 229.556 273.518L174.981 230.25C174.275 229.69 173.718 228.965 173.358 228.138C172.997 227.312 172.845 226.41 172.915 225.511C172.984 224.612 173.273 223.744 173.756 222.983C174.239 222.222 174.902 221.591 175.685 221.146L184.908 215.923C189.66 213.229 195.108 212.016 200.554 212.438C206 212.861 211.196 214.9 215.476 218.294Z" fill="url(#paint32_linear)"/>
<path d="M235.641 274.757C240.318 268.85 229.941 252.83 212.462 238.974C194.983 225.118 177.022 218.675 172.344 224.581C167.667 230.488 178.044 246.509 195.523 260.364C213.002 274.22 230.963 280.664 235.641 274.757Z" fill="url(#paint33_linear)"/>
<path d="M179.938 230.62C176.384 235.094 184.27 247.285 197.556 257.815C210.842 268.345 224.486 273.244 228.041 268.753C231.596 264.263 223.715 252.089 210.429 241.558C197.143 231.028 183.499 226.129 179.938 230.62Z" fill="url(#paint34_linear)"/>
<path d="M35.7481 398.125C30.2705 388.098 33.1155 370.756 39.1912 358.247C56.0321 323.614 98.2768 331.521 132.573 288.427C151.018 265.23 147.29 250.584 165.937 238.997C180.927 229.68 182.602 238.997 196.103 229.982C198.597 228.316 203.597 235.51 208.88 238.997C210.906 239.222 215.25 244.12 216.884 245.338C226.565 252.284 227.185 254.429 227.185 256.763C221.902 262.537 216.778 264.341 216.884 278.411C216.996 292.951 236.531 292.733 245.949 315.158C253.148 332.326 253.277 359.516 240.807 375.146C224.223 395.938 201.161 378.026 150.348 381.264C85.818 385.38 47.9163 420.41 35.7481 398.125Z" fill="white"/>
<path fill-rule="evenodd" clip-rule="evenodd" d="M235.637 274.745C240.315 268.839 229.937 252.818 212.458 238.962C194.979 225.107 177.018 218.663 172.341 224.57C172.04 224.949 171.802 225.37 171.624 225.829L179.218 232.118C179.353 231.548 179.59 231.042 179.935 230.608C183.495 226.117 197.139 231.016 210.425 241.547C223.711 252.077 231.592 264.251 228.037 268.742C227.411 269.532 226.473 270.032 225.279 270.261L232.857 276.536C234.028 276.182 234.968 275.59 235.637 274.745Z" fill="url(#paint35_linear)"/>
<path d="M27.7168 405.512C26.5989 404.953 24.665 405.579 23.413 406.005C23.0582 406.093 22.7203 406.238 22.4125 406.435C21.2275 407.486 22.2727 410.238 23.7092 414.639C25.9785 421.59 26.3362 423.805 27.5547 423.883C28.7732 423.961 29.6955 422.105 29.7905 421.898C30.3494 420.779 30.3103 419.761 30.1147 417.815C29.757 414.22 29.3825 411.848 29.2707 411.105C28.572 406.648 28.4658 405.893 27.7168 405.512Z" fill="#80D0C7"/>
<path d="M35.5468 406.77L28.2806 410.797C27.8334 410.797 25.7318 409.007 25.8827 406.798L32.59 401.765L35.5468 406.77Z" fill="url(#paint36_linear)"/>
<path d="M110.803 266.276C114.261 279.361 116.379 292.764 117.125 306.277C117.89 320.118 117.27 335.396 115.604 343.701C107.248 385.324 41.3771 407.195 33.6134 409.69C31.9813 407.497 30.351 405.307 28.7227 403.119C36.9279 397.017 77.0039 366.282 77.4008 332.058C77.4623 326.549 76.5736 314.649 74.2651 301.938C72.2668 290.953 69.3558 280.154 65.5624 269.654L110.803 266.276Z" fill="url(#paint37_linear)"/>
<path d="M102.465 147.155L108.339 148.33C108.339 148.33 139.182 187.705 134.777 202.698C130.373 217.691 108.339 206.221 108.339 206.221L102.465 147.155Z" fill="url(#paint38_linear)"/>
<path d="M63.7586 427.535C62.7693 428.345 62.5848 430.331 62.4675 431.673C62.4067 432.034 62.4067 432.402 62.4675 432.763C62.9426 434.273 65.877 434.441 70.4827 434.905C77.7489 435.649 79.9232 436.219 80.4933 435.14C81.0634 434.061 79.7331 432.461 79.5878 432.277C78.8053 431.293 77.8495 430.935 75.9938 430.325C72.5619 429.207 70.2423 428.575 69.5381 428.39C65.1448 427.216 64.4126 427.009 63.7586 427.535Z" fill="#80D0C7"/>
<path d="M68.0964 420.885L68.8286 429.179C68.6218 429.581 66.1569 430.784 64.2006 429.738L62.3281 421.584L68.0964 420.885Z" fill="url(#paint39_linear)"/>
<path d="M76.9593 246.843C75.1446 279.938 73.6541 313.643 72.4878 347.957C71.6382 373.681 71.0085 399.096 70.5986 424.202L61.5046 425.32C57.3323 417.582 54.1404 409.354 52.0027 400.826C48.7664 387.835 49.5154 380.135 48.0901 366.663C46.4971 351.564 44.1775 348.27 40.086 329.228C31.7634 290.575 27.6049 271.248 36.8833 259.224C39.9407 255.327 49.3868 245.534 76.9593 246.843Z" fill="url(#paint40_linear)"/>
<path d="M34.9663 148.167C45.8684 145.096 57.0722 143.221 68.3798 142.575C89.1388 141.401 99.5183 140.897 105.611 145.656C124.509 160.465 106.6 213.379 113.335 241.189C118.997 264.581 119.21 264.99 119.21 264.99C120.546 267.607 122.72 271.242 121.854 275.57C121.172 278.976 118.595 282.89 115.096 284.093C107.83 286.598 103.655 274.966 91.6205 271.454C79.0164 267.791 64.9143 275.072 47.0841 284.283C35.732 290.144 31.8586 293.885 27.8845 292.028C20.227 288.455 22.3286 268.871 23.1838 260.879C26.5542 229.104 30.3774 191.91 34.9663 148.167Z" fill="url(#paint41_linear)"/>
<path d="M87.0495 202.105C86.4906 201.987 85.518 198.33 87.927 197.256C98.7984 192.408 107.205 202.009 108.328 204.962L109.446 207.915C109.446 207.915 104.047 208.34 100.699 207.216C97.3508 206.092 91.5098 203.1 87.0495 202.105Z" fill="#FFECB3"/>
<path d="M116.721 215.856L97.6169 216.801C96.8847 216.834 96.0127 215.928 96.1916 215.313L105.135 186.396C105.213 186.152 105.372 185.943 105.585 185.802C105.799 185.662 106.054 185.599 106.308 185.624L124.642 186.027C125.24 186.06 125.57 187.235 125.407 187.816L117.811 215.011C117.74 215.248 117.596 215.456 117.401 215.607C117.206 215.759 116.968 215.846 116.721 215.856Z" fill="url(#paint42_linear)"/>
<path d="M116.394 215.241L97.1605 216.141C96.4283 216.181 95.9196 215.649 96.0985 215.023L104.684 185.602C104.767 185.36 104.929 185.152 105.144 185.013C105.359 184.873 105.614 184.809 105.869 184.83L124.23 185.921C124.371 185.928 124.508 185.968 124.631 186.036C124.754 186.104 124.86 186.2 124.94 186.315C125.021 186.43 125.075 186.562 125.097 186.701C125.119 186.84 125.109 186.983 125.068 187.117L117.456 214.408C117.383 214.637 117.243 214.84 117.053 214.989C116.864 215.137 116.634 215.225 116.394 215.241Z" fill="url(#paint43_linear)"/>
<g style="mix-blend-mode:multiply" opacity="0.3">
<path d="M106.69 197.698C107.249 200.377 109.664 199.801 111.626 203.039C114.113 207.149 111.726 210.778 114.013 212.283C114.706 212.741 115.885 213.021 118.003 212.467L117.444 214.419C117.37 214.647 117.228 214.848 117.037 214.995C116.847 215.141 116.617 215.227 116.377 215.241L97.1605 216.141C96.4283 216.181 95.9196 215.649 96.0985 215.023L104.684 185.602C104.767 185.36 104.929 185.152 105.144 185.013C105.359 184.873 105.614 184.809 105.869 184.83L108.624 184.998C109.003 186.114 109.192 187.286 109.183 188.465C109.077 192.911 106.02 194.566 106.69 197.698Z" fill="url(#paint44_linear)"/>
</g>
<path d="M125.158 195.551C125.264 195.092 125.035 194.611 124.688 194.589C123.291 194.488 120.049 194.443 118.255 195.998C115.929 198.017 112.917 201.697 115.46 203.553L117.824 205.287C117.872 205.327 117.928 205.354 117.989 205.365C118.05 205.377 118.112 205.373 118.171 205.354C119.009 205.097 122.553 203.984 122.939 203.71C123.324 203.436 124.632 197.788 125.158 195.551Z" fill="#FFECB3"/>
<path style="mix-blend-mode:multiply" opacity="0.3" d="M109.221 272.931C107.17 269.374 107.259 263.983 102.76 261.472C100.138 259.99 98.0925 260.684 94.5377 260.589C83.9178 260.303 81.9 253.632 74.5612 253.24C63.1979 252.642 57.7426 268.105 51.3595 265.879C47.1898 264.425 44.5069 256.087 46.6588 249.717C49.6548 240.837 59.9281 242.05 73.3874 230.027C79.1445 224.882 87.4056 215.599 85.1251 211.511C82.744 207.222 71.4367 213.519 63.0973 207.104C58.2289 203.363 58.8493 198.716 54.8697 190.327C52.7178 185.786 44.8088 173.976 33.071 166.012C29.2982 202.121 26.0563 233.505 23.133 260.863C22.2779 268.854 20.1762 288.438 27.8337 292.012C31.8078 293.868 35.6589 290.127 47.0333 284.266C64.8635 275.056 78.9656 267.775 91.5697 271.438C103.626 274.95 107.779 286.581 115.045 284.076C117.32 283.293 119.187 281.369 120.417 279.183C113.978 278.036 110.769 275.609 109.221 272.931Z" fill="#80D0C7"/>
<path d="M71.6041 127.325C71.6041 128.907 73.281 136.127 68.0046 139.963C62.7282 143.8 57.7033 143.777 55.7079 144.269C51.0687 145.421 50.4706 145.388 50.37 145.852C49.8669 148.089 62.5269 155.761 75.6006 153.916C83.6046 152.797 90.882 148.217 90.4348 145.818C89.9877 143.419 81.9948 144.7 79.6082 140.332C77.9313 137.296 79.8094 132.978 82.006 129.411C79.8765 125.407 73.7281 131.295 71.6041 127.325Z" fill="#FFECB3"/>
<path d="M89.8175 125.295C91.6787 122.762 91.7458 118.377 89.5436 115.632C87.6432 113.272 84.692 112.964 82.9257 112.78C77.8058 112.248 71.378 114.457 69.187 119.183C67.8902 121.979 70.8303 127.756 71.2942 128.79C71.814 129.965 72.7418 130.356 73.6082 131.24C74.8099 132.464 76.688 134.405 79.7565 137.66C80.0266 136.468 80.4007 135.302 80.8744 134.176C81.4901 132.711 82.2902 131.332 83.2555 130.071C85.8881 126.766 88.0568 127.694 89.8175 125.295Z" fill="url(#paint45_linear)"/>
<path d="M75.4019 134.941C75.4019 134.941 78.8226 140.422 85.5075 139.913C91.4937 139.454 92.2148 126.005 88.3637 123.192C87.0781 122.258 84.5182 121.889 82.4445 122.493C81.2204 122.851 80.8124 123.365 78.8002 123.913C76.9445 124.417 76.4135 124.215 75.8602 124.696C75.1615 125.295 74.6641 126.749 75.8602 130.669C74.7032 129.522 73.3282 129.092 72.3612 129.55C72.0302 129.736 71.7558 130.009 71.5675 130.339C70.7738 131.894 72.1935 133.84 75.4019 134.941Z" fill="#FFECB3"/>
<path d="M75.5795 123.897C75.8702 124.11 75.0206 125.194 74.9479 126.721C74.8529 129.685 77.8935 133.208 80.951 133.477C82.7619 133.639 83.2482 132.543 86.2329 132.19C87.6879 132.026 89.1597 132.096 90.5927 132.397C91.5708 135.635 90.7212 138.884 88.5693 140.411C86.2497 142.055 83.2538 141.104 82.0018 140.707C81.1634 140.445 78.4748 139.589 77.0495 137.162C75.5628 134.617 76.9769 133.063 75.2889 131.346C74.4337 130.485 73.3214 130.121 72.2259 128.444C71.9917 128.087 71.7843 127.713 71.6055 127.325C73.1258 125.647 75.1547 123.589 75.5795 123.897Z" fill="url(#paint46_linear)"/>
<path d="M51.0652 157.143C47.896 152.334 41.5912 147.636 35.7894 148.033C18.8591 149.258 -2.01737 194.902 12.3139 212.982C23.2412 226.784 56.9956 227.449 87.8044 203.576V195.64C72.6459 198.297 60.0753 200.058 50.7969 201.233C45.0063 201.96 39.238 202.619 38.1649 200.349C36.5384 196.915 48.1364 192.005 52.5576 179.193C53.1445 177.421 57.0179 166.18 51.0652 157.143Z" fill="url(#paint47_linear)"/>
<path d="M91.0095 50.1908H94.9221V66.4083C94.9221 66.5567 94.981 66.6989 95.0858 66.8038C95.1907 66.9086 95.3328 66.9676 95.4811 66.9676H102.188C102.337 66.9676 102.479 66.9086 102.584 66.8038C102.688 66.6989 102.747 66.5567 102.747 66.4083V50.2635H107.275C107.416 50.2639 107.551 50.2112 107.655 50.1158C107.759 50.0204 107.822 49.8894 107.834 49.749L108.521 43.7876C108.532 43.7065 108.526 43.6239 108.502 43.5456C108.477 43.4673 108.436 43.3953 108.381 43.3346C108.326 43.2733 108.259 43.2241 108.184 43.1904C108.109 43.1567 108.028 43.1391 107.945 43.1389H102.742V39.4033C102.742 38.2848 103.345 37.7256 104.541 37.7256H107.945C108.094 37.7256 108.236 37.6667 108.341 37.5618C108.445 37.4569 108.504 37.3147 108.504 37.1664V31.6916C108.504 31.5432 108.445 31.401 108.341 31.2961C108.236 31.1912 108.094 31.1323 107.945 31.1323H103.083C100.918 31.1464 98.8301 31.9406 97.2026 33.3692C96.4318 34.041 95.8406 34.8944 95.4824 35.8523C95.1243 36.8102 95.0104 37.8423 95.1513 38.8552V43.2228H91.0095C90.8613 43.2228 90.7191 43.2817 90.6143 43.3866C90.5095 43.4915 90.4506 43.6337 90.4506 43.782V49.5924C90.4452 49.6691 90.4557 49.746 90.4814 49.8184C90.507 49.8909 90.5473 49.9572 90.5998 50.0134C90.6522 50.0695 90.7157 50.1143 90.7862 50.1448C90.8567 50.1753 90.9327 50.191 91.0095 50.1908Z" fill="white"/>
<path d="M179.425 41.0587C178.711 41.0251 178.004 41.2041 177.392 41.5729C176.78 41.9416 176.291 42.4837 175.988 43.1305C175.684 43.7772 175.578 44.4996 175.685 45.2063C175.792 45.9129 176.105 46.5721 176.586 47.1003C177.067 47.6286 177.694 48.0023 178.388 48.174C179.081 48.3458 179.81 48.3079 180.481 48.0652C181.153 47.8226 181.738 47.386 182.162 46.8107C182.586 46.2355 182.829 45.5473 182.862 44.8335C182.885 44.3597 182.814 43.8861 182.653 43.4398C182.492 42.9935 182.245 42.5833 181.926 42.2327C181.607 41.882 181.221 41.5979 180.792 41.3964C180.363 41.195 179.898 41.0802 179.425 41.0587Z" fill="white"/>
<path d="M183.953 35.9305L175.413 35.5334C174.181 35.4787 172.977 35.9147 172.066 36.7458C171.154 37.577 170.609 38.7357 170.55 39.9681L170.153 48.5354C170.098 49.768 170.534 50.9721 171.365 51.884C172.196 52.7959 173.354 53.3412 174.585 53.4007L183.148 53.7977C184.38 53.8524 185.584 53.4165 186.495 52.5853C187.407 51.7541 187.952 50.5955 188.011 49.3631L188.408 40.7957C188.435 40.1836 188.341 39.5721 188.132 38.9962C187.923 38.4203 187.602 37.8914 187.188 37.4395C186.775 36.9877 186.276 36.6219 185.721 36.3629C185.166 36.104 184.565 35.957 183.953 35.9305ZM179.035 49.5196C178.075 49.4755 177.15 49.1476 176.376 48.5774C175.603 48.0072 175.016 47.2204 174.69 46.3164C174.363 45.4124 174.312 44.4318 174.543 43.4987C174.773 42.5656 175.275 41.7219 175.985 41.0743C176.695 40.4266 177.581 40.0041 178.531 39.8602C179.48 39.7163 180.452 39.8575 181.321 40.2658C182.191 40.6742 182.92 41.3314 183.416 42.1544C183.913 42.9773 184.154 43.9291 184.11 44.8893C184.05 46.1766 183.482 47.3876 182.531 48.256C181.579 49.1243 180.321 49.5789 179.035 49.5196ZM185.038 40.3875C184.833 40.3784 184.636 40.3088 184.471 40.1875C184.306 40.0663 184.181 39.8988 184.111 39.7062C184.042 39.5137 184.031 39.3048 184.08 39.106C184.129 38.9072 184.236 38.7275 184.387 38.5895C184.538 38.4515 184.727 38.3615 184.929 38.331C185.131 38.3004 185.338 38.3306 185.524 38.4177C185.709 38.5048 185.864 38.645 185.969 38.8204C186.075 38.9959 186.126 39.1987 186.116 39.4032C186.103 39.6767 185.982 39.9339 185.78 40.1184C185.578 40.3029 185.311 40.3996 185.038 40.3875Z" fill="white"/>
<path d="M187.364 31.7756L172.39 31.0821C171.63 31.0476 170.871 31.1633 170.156 31.4227C169.441 31.6821 168.784 32.08 168.223 32.5938C167.661 33.1075 167.207 33.7269 166.885 34.4165C166.564 35.1062 166.381 35.8526 166.348 36.6129L165.655 51.4883C165.582 53.0222 166.12 54.5224 167.151 55.6598C168.182 56.7973 169.622 57.4792 171.155 57.5559L186.135 58.2494C186.894 58.2832 187.653 58.1669 188.367 57.9071C189.082 57.6474 189.738 57.2494 190.299 56.7357C190.859 56.2221 191.313 55.6029 191.634 54.9136C191.956 54.2243 192.138 53.4785 192.171 52.7186L192.864 37.8432C192.937 36.3093 192.399 34.8092 191.368 33.6717C190.337 32.5342 188.897 31.8523 187.364 31.7756ZM189.237 49.4248C189.161 50.984 188.472 52.4501 187.321 53.5031C186.169 54.556 184.647 55.1103 183.088 55.045L174.503 54.6256C172.945 54.5502 171.479 53.861 170.427 52.7085C169.374 51.556 168.82 50.0338 168.886 48.4741L169.283 39.9067C169.358 38.3475 170.047 36.8814 171.199 35.8284C172.351 34.7755 173.872 34.2212 175.431 34.2865L183.994 34.6836C185.552 34.759 187.018 35.4482 188.07 36.6006C189.122 37.7531 189.676 39.2753 189.611 40.8351L189.237 49.4248Z" fill="white"/>
<g style="mix-blend-mode:multiply" opacity="0.3">
<path style="mix-blend-mode:multiply" opacity="0.3" d="M90.6603 68.0468C94.3549 60.5028 90.6211 53.2832 95.6181 48.3844C100.772 43.3513 107.585 48.0991 115.064 43.9105C117.998 42.272 121.285 39.1124 123.75 32.5918C128.07 37.1048 130.664 42.8256 130.664 49.061C130.664 64.1601 115.734 75.7249 98.1333 74.9476C94.3791 74.7944 90.6717 74.0567 87.1445 72.761C88.5957 71.4189 89.7875 69.8208 90.6603 68.0468Z" fill="url(#paint48_linear)"/>
</g>
<g style="mix-blend-mode:multiply" opacity="0.3">
<path style="mix-blend-mode:multiply" opacity="0.3" d="M171.677 60.9391C175.069 54.5248 171.643 48.3901 176.226 44.2518C180.927 40.0184 187.098 44.084 193.811 40.628C196.432 39.2803 199.355 36.6687 201.541 31.2554C205.353 35.0693 207.633 39.8507 207.633 45.0235C207.633 57.5558 194.409 67.2807 178.518 66.7607C175.096 66.6526 171.707 66.0498 168.457 64.9711C169.773 63.8409 170.865 62.4731 171.677 60.9391Z" fill="url(#paint49_linear)"/>
</g>
</g>
<defs>
<filter id="filter0_d" x="209.906" y="113.344" width="179.671" height="297.96" filterUnits="userSpaceOnUse" color-interpolation-filters="sRGB">
<feFlood flood-opacity="0" result="BackgroundImageFix"/>
<feColorMatrix in="SourceAlpha" type="matrix" values="0 0 0 0 0 0 0 0 0 0 0 0 0 0 0 0 0 0 127 0"/>
<feOffset dy="4"/>
<feGaussianBlur stdDeviation="10"/>
<feColorMatrix type="matrix" values="0 0 0 0 0 0 0 0 0 0 0 0 0 0 0 0 0 0 0.1 0"/>
<feBlend mode="normal" in2="BackgroundImageFix" result="effect1_dropShadow"/>
<feBlend mode="normal" in="SourceGraphic" in2="effect1_dropShadow" result="shape"/>
</filter>
<filter id="filter1_d" x="273.941" y="185.054" width="181.892" height="222.017" filterUnits="userSpaceOnUse" color-interpolation-filters="sRGB">
<feFlood flood-opacity="0" result="BackgroundImageFix"/>
<feColorMatrix in="SourceAlpha" type="matrix" values="0 0 0 0 0 0 0 0 0 0 0 0 0 0 0 0 0 0 127 0"/>
<feOffset dy="4"/>
<feGaussianBlur stdDeviation="10"/>
<feColorMatrix type="matrix" values="0 0 0 0 0 0 0 0 0 0 0 0 0 0 0 0 0 0 0.1 0"/>
<feBlend mode="normal" in2="BackgroundImageFix" result="effect1_dropShadow"/>
<feBlend mode="normal" in="SourceGraphic" in2="effect1_dropShadow" result="shape"/>
</filter>
<filter id="filter2_d" x="288.891" y="335.532" width="123.521" height="84.5224" filterUnits="userSpaceOnUse" color-interpolation-filters="sRGB">
<feFlood flood-opacity="0" result="BackgroundImageFix"/>
<feColorMatrix in="SourceAlpha" type="matrix" values="0 0 0 0 0 0 0 0 0 0 0 0 0 0 0 0 0 0 127 0"/>
<feOffset dy="4"/>
<feGaussianBlur stdDeviation="10"/>
<feColorMatrix type="matrix" values="0 0 0 0 0 0 0 0 0 0 0 0 0 0 0 0 0 0 0.1 0"/>
<feBlend mode="normal" in2="BackgroundImageFix" result="effect1_dropShadow"/>
<feBlend mode="normal" in="SourceGraphic" in2="effect1_dropShadow" result="shape"/>
</filter>
<filter id="filter3_d" x="86.9453" y="127.296" width="148.882" height="98.991" filterUnits="userSpaceOnUse" color-interpolation-filters="sRGB">
<feFlood flood-opacity="0" result="BackgroundImageFix"/>
<feColorMatrix in="SourceAlpha" type="matrix" values="0 0 0 0 0 0 0 0 0 0 0 0 0 0 0 0 0 0 127 0"/>
<feOffset dy="4"/>
<feGaussianBlur stdDeviation="10"/>
<feColorMatrix type="matrix" values="0 0 0 0 0 0 0 0 0 0 0 0 0 0 0 0 0 0 0.1 0"/>
<feBlend mode="normal" in2="BackgroundImageFix" result="effect1_dropShadow"/>
<feBlend mode="normal" in="SourceGraphic" in2="effect1_dropShadow" result="shape"/>
</filter>
<filter id="filter4_d" x="161.418" y="-5.15674" width="265.604" height="289.29" filterUnits="userSpaceOnUse" color-interpolation-filters="sRGB">
<feFlood flood-opacity="0" result="BackgroundImageFix"/>
<feColorMatrix in="SourceAlpha" type="matrix" values="0 0 0 0 0 0 0 0 0 0 0 0 0 0 0 0 0 0 127 0"/>
<feOffset dy="4"/>
<feGaussianBlur stdDeviation="10"/>
<feColorMatrix type="matrix" values="0 0 0 0 0 0 0 0 0 0 0 0 0 0 0 0 0 0 0.1 0"/>
<feBlend mode="normal" in2="BackgroundImageFix" result="effect1_dropShadow"/>
<feBlend mode="normal" in="SourceGraphic" in2="effect1_dropShadow" result="shape"/>
</filter>
<linearGradient id="paint0_linear" x1="416.195" y1="129.344" x2="246.918" y2="109.796" gradientUnits="userSpaceOnUse">
<stop stop-color="#0093E9"/>
<stop offset="1" stop-color="#80D0C7"/>
</linearGradient>
<linearGradient id="paint1_linear" x1="528.081" y1="260.617" x2="346.932" y2="182.016" gradientUnits="userSpaceOnUse">
<stop stop-color="#0093E9"/>
<stop offset="1" stop-color="#80D0C7"/>
</linearGradient>
<linearGradient id="paint2_linear" x1="420.563" y1="330.567" x2="320.399" y2="374.598" gradientUnits="userSpaceOnUse">
<stop stop-color="#0093E9"/>
<stop offset="1" stop-color="#80D0C7"/>
</linearGradient>
<linearGradient id="paint3_linear" x1="79.5" y1="306.5" x2="463.982" y2="70.8397" gradientUnits="userSpaceOnUse">
<stop stop-color="#F4D03F"/>
<stop offset="1" stop-color="#16A085"/>
</linearGradient>
<linearGradient id="paint4_linear" x1="-164" y1="429.5" x2="269.789" y2="191.908" gradientUnits="userSpaceOnUse">
<stop stop-color="#F4D03F"/>
<stop offset="1" stop-color="#16A085"/>
</linearGradient>
<linearGradient id="paint5_linear" x1="-10.3577" y1="410.737" x2="25.0142" y2="279.155" gradientUnits="userSpaceOnUse">
<stop stop-color="#F4D03F"/>
<stop offset="1" stop-color="#16A085"/>
</linearGradient>
<linearGradient id="paint6_linear" x1="365.902" y1="378.435" x2="326.118" y2="492.515" gradientUnits="userSpaceOnUse">
<stop offset="0.415904" stop-color="#0093E9"/>
<stop offset="1" stop-color="#80D0C7"/>
</linearGradient>
<linearGradient id="paint7_linear" x1="1556.12" y1="3711.33" x2="1664.19" y2="3711.33" gradientUnits="userSpaceOnUse">
<stop stop-color="#FF9085"/>
<stop offset="1" stop-color="#FB6FBB"/>
</linearGradient>
<linearGradient id="paint8_linear" x1="1745.47" y1="3700.62" x2="1851.3" y2="3700.62" gradientUnits="userSpaceOnUse">
<stop stop-color="#FF9085"/>
<stop offset="1" stop-color="#FB6FBB"/>
</linearGradient>
<linearGradient id="paint9_linear" x1="1932.31" y1="3685.13" x2="2036" y2="3685.13" gradientUnits="userSpaceOnUse">
<stop stop-color="#FF9085"/>
<stop offset="1" stop-color="#FB6FBB"/>
</linearGradient>
<linearGradient id="paint10_linear" x1="290.304" y1="165.278" x2="-44.1161" y2="258.998" gradientUnits="userSpaceOnUse">
<stop stop-color="#0093E9"/>
<stop offset="1" stop-color="#80D0C7"/>
</linearGradient>
<linearGradient id="paint11_linear" x1="146.513" y1="-62.9966" x2="53.1547" y2="170.28" gradientUnits="userSpaceOnUse">
<stop stop-color="#7D4AA6"/>
<stop offset="1" stop-color="#893976"/>
</linearGradient>
<linearGradient id="paint12_linear" x1="17483.9" y1="9493.79" x2="21094.1" y2="17474.6" gradientUnits="userSpaceOnUse">
<stop stop-color="#FF9085"/>
<stop offset="1" stop-color="#FB6FBB"/>
</linearGradient>
<linearGradient id="paint13_linear" x1="87.9479" y1="27.3086" x2="130.915" y2="106.954" gradientUnits="userSpaceOnUse">
<stop stop-color="#0085FF"/>
<stop offset="1" stop-color="#FB6FBB"/>
</linearGradient>
<linearGradient id="paint14_linear" x1="120.958" y1="85.3099" x2="144.039" y2="111.711" gradientUnits="userSpaceOnUse">
<stop stop-color="#FFC444"/>
<stop offset="1" stop-color="#F36F56"/>
</linearGradient>
<linearGradient id="paint15_linear" x1="141.315" y1="62.3406" x2="141.315" y2="138.643" gradientUnits="userSpaceOnUse">
<stop stop-color="#F44336"/>
<stop offset="1" stop-color="#F44336" stop-opacity="0"/>
</linearGradient>
<linearGradient id="paint16_linear" x1="154285" y1="13236.7" x2="150918" y2="20354.1" gradientUnits="userSpaceOnUse">
<stop stop-color="#FFC444"/>
<stop offset="1" stop-color="#F36F56"/>
</linearGradient>
<linearGradient id="paint17_linear" x1="23695.4" y1="9321.12" x2="28100.9" y2="9628.33" gradientUnits="userSpaceOnUse">
<stop stop-color="#AA80F9"/>
<stop offset="1" stop-color="#6165D7"/>
</linearGradient>
<linearGradient id="paint18_linear" x1="145.568" y1="77.2225" x2="237.731" y2="-10.83" gradientUnits="userSpaceOnUse">
<stop stop-color="#4158D0"/>
<stop offset="0.354557" stop-color="#C850C0"/>
<stop offset="0.666445" stop-color="#FFCC70"/>
</linearGradient>
<linearGradient id="paint19_linear" x1="125405" y1="80344.9" x2="109732" y2="67893.3" gradientUnits="userSpaceOnUse">
<stop stop-color="#EBEFF2"/>
<stop offset="1" stop-color="white"/>
</linearGradient>
<linearGradient id="paint20_linear" x1="-123845" y1="-4342.53" x2="-114591" y2="-20918" gradientUnits="userSpaceOnUse">
<stop stop-color="#444B8C"/>
<stop offset="1" stop-color="#26264F"/>
</linearGradient>
<linearGradient id="paint21_linear" x1="299.174" y1="227.436" x2="237.141" y2="235.918" gradientUnits="userSpaceOnUse">
<stop offset="0.181988" stop-color="#185A9D"/>
<stop offset="0.906278" stop-color="#43CEA2"/>
</linearGradient>
<linearGradient id="paint22_linear" x1="187.688" y1="151.656" x2="90.2847" y2="200.592" gradientUnits="userSpaceOnUse">
<stop offset="0.181988" stop-color="#185A9D"/>
<stop offset="0.906278" stop-color="#43CEA2"/>
</linearGradient>
<linearGradient id="paint23_linear" x1="255.674" y1="307.69" x2="322.33" y2="294.861" gradientUnits="userSpaceOnUse">
<stop stop-color="#F4D03F"/>
<stop offset="1" stop-color="#16A085"/>
</linearGradient>
<linearGradient id="paint24_linear" x1="100.291" y1="191.701" x2="189.252" y2="128.787" gradientUnits="userSpaceOnUse">
<stop stop-color="#F4D03F"/>
<stop offset="1" stop-color="#16A085"/>
</linearGradient>
<linearGradient id="paint25_linear" x1="167.63" y1="215.397" x2="414.469" y2="129.805" gradientUnits="userSpaceOnUse">
<stop stop-color="#F4D03F"/>
<stop offset="1" stop-color="#16A085"/>
</linearGradient>
<linearGradient id="paint26_linear" x1="407.037" y1="66.3887" x2="48.3766" y2="-6.79649" gradientUnits="userSpaceOnUse">
<stop stop-color="#FA709A"/>
<stop offset="1" stop-color="#FEE140"/>
</linearGradient>
<linearGradient id="paint27_linear" x1="307" y1="62" x2="447.319" y2="12.0678" gradientUnits="userSpaceOnUse">
<stop stop-color="#F4D03F"/>
<stop offset="1" stop-color="#16A085"/>
</linearGradient>
<linearGradient id="paint28_linear" x1="50533.2" y1="7551.22" x2="47110.1" y2="1715.16" gradientUnits="userSpaceOnUse">
<stop stop-color="#FFC444"/>
<stop offset="1" stop-color="#F36F56"/>
</linearGradient>
<linearGradient id="paint29_linear" x1="353.585" y1="155.592" x2="261.328" y2="82.534" gradientUnits="userSpaceOnUse">
<stop stop-color="#EBEFF2"/>
<stop offset="1" stop-color="white"/>
</linearGradient>
<linearGradient id="paint30_linear" x1="-108190" y1="91340" x2="-103259" y2="102816" gradientUnits="userSpaceOnUse">
<stop stop-color="#EBEFF2"/>
<stop offset="1" stop-color="white"/>
</linearGradient>
<linearGradient id="paint31_linear" x1="288.185" y1="35.4468" x2="231.722" y2="145.204" gradientUnits="userSpaceOnUse">
<stop stop-color="#0093E9"/>
<stop offset="1" stop-color="#80D0C7"/>
</linearGradient>
<linearGradient id="paint32_linear" x1="285.5" y1="151.5" x2="141.683" y2="198.107" gradientUnits="userSpaceOnUse">
<stop stop-color="#185A9D"/>
<stop offset="0.906278" stop-color="#43CEA2"/>
</linearGradient>
<linearGradient id="paint33_linear" x1="26575.3" y1="29030.9" x2="27306.2" y2="35818.2" gradientUnits="userSpaceOnUse">
<stop stop-color="#AA80F9"/>
<stop offset="1" stop-color="#6165D7"/>
</linearGradient>
<linearGradient id="paint34_linear" x1="-72265" y1="3567.8" x2="-73224.6" y2="7037.38" gradientUnits="userSpaceOnUse">
<stop stop-color="#444B8C"/>
<stop offset="1" stop-color="#26264F"/>
</linearGradient>
<linearGradient id="paint35_linear" x1="222.083" y1="225.889" x2="156.16" y2="247.474" gradientUnits="userSpaceOnUse">
<stop offset="0.181988" stop-color="#185A9D"/>
<stop offset="0.906278" stop-color="#43CEA2"/>
</linearGradient>
<linearGradient id="paint36_linear" x1="-22282.4" y1="-24953.1" x2="-22110.6" y2="-25197.7" gradientUnits="userSpaceOnUse">
<stop stop-color="#FFC444"/>
<stop offset="1" stop-color="#F36F56"/>
</linearGradient>
<linearGradient id="paint37_linear" x1="162.76" y1="224.189" x2="23.0247" y2="238.603" gradientUnits="userSpaceOnUse">
<stop offset="0.616469" stop-color="#0093E9"/>
<stop offset="1" stop-color="#80D0C7"/>
</linearGradient>
<linearGradient id="paint38_linear" x1="100.464" y1="199.063" x2="139.077" y2="191.405" gradientUnits="userSpaceOnUse">
<stop stop-color="#F4D03F"/>
<stop offset="1" stop-color="#16A085"/>
</linearGradient>
<linearGradient id="paint39_linear" x1="3320.09" y1="8987.56" x2="3136.95" y2="8780.41" gradientUnits="userSpaceOnUse">
<stop stop-color="#FFC444"/>
<stop offset="1" stop-color="#F36F56"/>
</linearGradient>
<linearGradient id="paint40_linear" x1="46.1906" y1="265.821" x2="-0.818267" y2="284.834" gradientUnits="userSpaceOnUse">
<stop offset="0.285888" stop-color="#0093E9"/>
<stop offset="1" stop-color="#80D0C7"/>
</linearGradient>
<linearGradient id="paint41_linear" x1="16.1631" y1="265.458" x2="131.079" y2="236.308" gradientUnits="userSpaceOnUse">
<stop stop-color="#F4D03F"/>
<stop offset="1" stop-color="#16A085"/>
</linearGradient>
<linearGradient id="paint42_linear" x1="20221.3" y1="26570" x2="20605.7" y2="27030.6" gradientUnits="userSpaceOnUse">
<stop stop-color="#444B8C"/>
<stop offset="1" stop-color="#26264F"/>
</linearGradient>
<linearGradient id="paint43_linear" x1="123" y1="188" x2="65.2848" y2="192.985" gradientUnits="userSpaceOnUse">
<stop offset="0.181988" stop-color="#185A9D"/>
<stop offset="0.906278" stop-color="#43CEA2"/>
</linearGradient>
<linearGradient id="paint44_linear" x1="120.898" y1="178.154" x2="89.0351" y2="183.053" gradientUnits="userSpaceOnUse">
<stop stop-color="#FA709A"/>
<stop offset="1" stop-color="#FEE140"/>
</linearGradient>
<linearGradient id="paint45_linear" x1="75.339" y1="107.375" x2="48.6685" y2="126.151" gradientUnits="userSpaceOnUse">
<stop stop-color="#0093E9"/>
<stop offset="1" stop-color="#80D0C7"/>
</linearGradient>
<linearGradient id="paint46_linear" x1="93.5544" y1="120.143" x2="66.3425" y2="126.769" gradientUnits="userSpaceOnUse">
<stop stop-color="#0093E9"/>
<stop offset="1" stop-color="#80D0C7"/>
</linearGradient>
<linearGradient id="paint47_linear" x1="2.62954" y1="209.214" x2="86.7172" y2="174.542" gradientUnits="userSpaceOnUse">
<stop stop-color="#F4D03F"/>
<stop offset="1" stop-color="#16A085"/>
</linearGradient>
<linearGradient id="paint48_linear" x1="142158" y1="8057.13" x2="139016" y2="14528.5" gradientUnits="userSpaceOnUse">
<stop stop-color="#FF9085"/>
<stop offset="1" stop-color="#FB6FBB"/>
</linearGradient>
<linearGradient id="paint49_linear" x1="133116" y1="6654.58" x2="130954" y2="11438.4" gradientUnits="userSpaceOnUse">
<stop stop-color="#E38DDD"/>
<stop offset="1" stop-color="#9571F6"/>
</linearGradient>
<clipPath id="clip0">
<rect width="444" height="435" fill="white" transform="translate(0 0.738281)"/>
</clipPath>
</defs>
</svg>
